<?xml version="1.0" encoding="UTF-8"?>
<svg version="1.1" xmlns="http://www.w3.org/2000/svg" width="512" height="512">
<path d="M0 0 C168.96 0 337.92 0 512 0 C512 168.96 512 337.92 512 512 C343.04 512 174.08 512 0 512 C0 343.04 0 174.08 0 0 Z " fill="#000000" transform="translate(0,0)"/>
<path d="M0 0 C0.89589844 0.69480469 1.79179687 1.38960937 2.71484375 2.10546875 C13.35678553 10.48771557 23.05610239 20.01126695 31 31 C31.59683594 31.75667969 32.19367188 32.51335937 32.80859375 33.29296875 C53.91235203 60.681146 64.50337845 95.2602438 64.3125 129.625 C64.31034485 130.32654205 64.3081897 131.02808411 64.30596924 131.75088501 C64.25040403 143.05840548 63.64040206 153.97201638 61 165 C60.80664062 165.81903809 60.61328125 166.63807617 60.4140625 167.48193359 C53.76556443 194.71717761 41.50926043 218.12774392 23.35742188 239.39013672 C22.15541864 240.81567796 20.99793456 242.27849728 19.84765625 243.74609375 C18.13730357 245.83250706 16.4331064 247.51593588 14.375 249.25 C12.12945988 251.15767903 9.92486494 253.07115966 7.78515625 255.09765625 C-3.64458424 265.88078913 -16.80753609 273.45379365 -31 280 C-32.76150391 280.81791016 -32.76150391 280.81791016 -34.55859375 281.65234375 C-48.33294251 287.79686028 -62.15233891 291.5637984 -77 294 C-78.36644653 294.25910156 -78.36644653 294.25910156 -79.76049805 294.5234375 C-97.56198561 297.14221086 -118.54219798 296.23219443 -136 292 C-136.82145508 291.80664062 -137.64291016 291.61328125 -138.48925781 291.4140625 C-159.0243759 286.43957408 -177.48758565 277.74976383 -195 266 C-195.57766113 265.61295898 -196.15532227 265.22591797 -196.75048828 264.82714844 C-220.17260426 248.77228873 -238.19941968 225.26252496 -250.16552734 199.75292969 C-250.87638925 198.25966214 -251.6310583 196.78737817 -252.39453125 195.3203125 C-269.9858514 160.36105404 -268.77051353 115.50176574 -257.1875 79.0625 C-250.85823367 60.91203584 -242.92895874 45.19980226 -231 30 C-229.98292969 28.64068359 -229.98292969 28.64068359 -228.9453125 27.25390625 C-228.32398438 26.42761719 -227.70265625 25.60132813 -227.0625 24.75 C-226.51722656 24.02296875 -225.97195312 23.2959375 -225.41015625 22.546875 C-224.94480469 22.03640625 -224.47945312 21.5259375 -224 21 C-223.34 21 -222.68 21 -222 21 C-221.76410156 20.44183594 -221.52820313 19.88367188 -221.28515625 19.30859375 C-209.0650882 -2.64295706 -175.8897107 -18.97320589 -153 -26 C-152.30664551 -26.22091309 -151.61329102 -26.44182617 -150.89892578 -26.66943359 C-99.94257819 -42.73263044 -41.87636563 -34.31789498 0 0 Z " fill="#D16AE6" transform="translate(357,123)"/>
<path d="M0 0 C1.34288086 -0.00788544 1.34288086 -0.00788544 2.71289062 -0.01593018 C5.65586077 -0.02907357 8.59828464 -0.02041137 11.54125977 -0.01025391 C13.5971741 -0.01227644 15.65308774 -0.01518938 17.70899963 -0.01895142 C22.01196136 -0.02336726 26.31473587 -0.01696811 30.61767578 -0.00292969 C36.11984148 0.01415084 41.62156776 0.00432333 47.12371731 -0.01364708 C51.36777526 -0.02451405 55.61172994 -0.02102501 59.85579109 -0.0132637 C61.88388179 -0.01126919 63.911982 -0.01369453 65.94006157 -0.02070236 C68.7806043 -0.02836359 71.62044661 -0.01664686 74.4609375 0 C75.29079666 -0.00607269 76.12065582 -0.01214539 76.97566223 -0.0184021 C84.83746898 0.06649316 91.64408629 2.30685687 97.79516602 7.38818359 C102.7352248 13.65870318 104.93365034 18.24525607 104.89282227 26.24755859 C104.88959961 27.36259766 104.88637695 28.47763672 104.88305664 29.62646484 C104.87467773 30.78533203 104.86629883 31.94419922 104.85766602 33.13818359 C104.8531543 34.31251953 104.84864258 35.48685547 104.84399414 36.69677734 C104.83221696 39.59396432 104.81576928 42.49104813 104.79516602 45.38818359 C108.8623715 42.95199622 112.80819858 40.45771825 116.54125977 37.52880859 C117.15163086 37.05314453 117.76200195 36.57748047 118.39086914 36.08740234 C119.62396853 35.1171375 120.84795478 34.13518339 122.06274414 33.14208984 C126.10246889 30.03460927 129.58495571 28.65078788 134.60400391 27.83642578 C137.43219328 28.5485938 139.04408429 29.82681831 140.79689026 32.14233398 C143.1518889 37.44044198 142.43641871 43.57851389 142.35375977 49.27099609 C142.34950518 50.73257017 142.34718059 52.19415102 142.34669495 53.6557312 C142.34054509 56.71058025 142.31791895 59.76469155 142.28222656 62.81933594 C142.23687473 66.7312118 142.22219536 70.64242231 142.21848965 74.55453682 C142.2140581 77.56918878 142.19875041 80.58370175 142.17961311 83.5982933 C142.17074778 85.04075862 142.16400961 86.48323867 142.15945244 87.92572403 C142.15039294 89.94078909 142.12630976 91.95576966 142.1015625 93.97070312 C142.0909227 95.11620636 142.0802829 96.26170959 142.06932068 97.44192505 C141.79855609 100.35175147 141.42245145 101.98711458 139.79516602 104.38818359 C136.0541946 106.88216454 134.22956795 106.79947674 129.79516602 106.38818359 C126.94360352 104.95458984 126.94360352 104.95458984 124.17016602 102.95068359 C123.15180664 102.23009766 122.13344727 101.50951172 121.08422852 100.76708984 C120.55345703 100.38182129 120.02268555 99.99655273 119.47583008 99.59960938 C117.11506965 97.89796887 114.71556935 96.25460178 112.31713867 94.60668945 C109.8025728 92.87753566 107.29901906 91.13280378 104.79516602 89.38818359 C104.80563965 90.07855713 104.81611328 90.76893066 104.8269043 91.48022461 C104.86872299 94.63700659 104.89457404 97.79373005 104.92016602 100.95068359 C104.93692383 102.03671875 104.95368164 103.12275391 104.97094727 104.24169922 C105.02035849 112.36984593 104.52358204 119.02027076 99.48657227 125.68115234 C88.98458097 136.28015972 74.66709963 135.4643295 60.78195381 135.54578114 C58.57541062 135.55294745 56.3689076 135.55507059 54.16235352 135.55615234 C52.59302746 135.55937642 51.02370169 135.56274129 49.45437622 135.5662384 C46.1885712 135.57217781 42.92279245 135.57408346 39.65698242 135.57348633 C35.50057023 135.57338444 31.34432779 135.58708806 27.18795586 135.60425854 C23.95520268 135.615442 20.72248992 135.61740368 17.48971939 135.6168766 C15.95812515 135.61804518 14.42652947 135.62240274 12.89495468 135.63020897 C-12.51715353 135.74772863 -12.51715353 135.74772863 -20.23608398 128.47412109 C-27.32032829 121.00486351 -29.66064541 114.20669082 -29.62475586 104.1015625 C-29.6332254 103.20937515 -29.64169495 102.31718781 -29.65042114 101.39796448 C-29.67367995 98.47007707 -29.67481594 95.54271862 -29.67358398 92.61474609 C-29.68069232 90.5650512 -29.68839229 88.51535829 -29.69665527 86.46566772 C-29.71007462 82.17708805 -29.7116803 77.8886924 -29.70581055 73.60009766 C-29.69991729 68.12373977 -29.73050297 62.64826928 -29.77092743 57.1720829 C-29.79686663 52.94079897 -29.79967618 48.70972695 -29.79603577 44.47837448 C-29.79772122 42.46028794 -29.80730794 40.442191 -29.82518005 38.42418289 C-29.99763422 16.54549919 -29.99763422 16.54549919 -22.21496582 8.27310181 C-15.51006051 1.79125193 -9.07651691 -0.06625796 0 0 Z " fill="#FEFDFE" transform="translate(201.204833984375,187.61181640625)"/>
<path d="M0 0 C2.15682057 0.93811225 3.89045659 2.0735136 5.8046875 3.4375 C12.71241959 8.3540353 20.36924061 12.33136568 28 16 C28 16.66 28 17.32 28 18 C28.53625 18.0825 29.0725 18.165 29.625 18.25 C34.33416451 19.73710458 38.66244063 22.58461008 41 27 C41.66320046 30.81340266 41.34578095 32.46169068 39.24609375 35.73046875 C35.01957129 40.57576249 29.10388897 43.34892103 23.5625 46.4375 C22.38282637 47.10245624 21.20338372 47.7678224 20.02416992 48.43359375 C16.69289722 50.30748332 13.34698268 52.15431493 10 54 C9.18466797 54.45777832 8.36933594 54.91555664 7.52929688 55.38720703 C5.63469435 56.44732406 3.72955323 57.48121373 1.8125 58.5 C0.82894531 59.0259375 -0.15460938 59.551875 -1.16796875 60.09375 C-4.80418977 61.25734073 -7.31496473 60.87149093 -11 60 C-14.03412826 57.06700935 -14.87697667 53.98340895 -15.13371277 49.84425354 C-15.13752457 49.06879684 -15.14133636 48.29334015 -15.14526367 47.49438477 C-15.15164352 46.60989151 -15.15802338 45.72539825 -15.16459656 44.81410217 C-15.16570938 43.86611252 -15.1668222 42.91812286 -15.16796875 41.94140625 C-15.17296135 40.46945045 -15.17296135 40.46945045 -15.17805481 38.96775818 C-15.18311325 36.89411894 -15.18546347 34.82047158 -15.18530273 32.74682617 C-15.18748942 29.5778257 -15.20565727 26.40917329 -15.22460938 23.24023438 C-15.22754349 21.22395952 -15.22952816 19.20768302 -15.23046875 17.19140625 C-15.23765427 16.24544083 -15.24483978 15.2994754 -15.25224304 14.32484436 C-15.22257965 5.76659023 -15.22257965 5.76659023 -13 2 C-8.71574334 -0.8561711 -5.02894206 -0.72380575 0 0 Z " fill="#D16AE6" transform="translate(226,225)"/>
<path d="M0 0 C4.8642831 2.10333341 7.05583055 5.12096504 9 10 C9.57350943 14.1930382 9.47662089 18.27830571 9.3125 22.5 C9.27866211 24.16289062 9.27866211 24.16289062 9.24414062 25.859375 C9.18562829 28.57434753 9.10370491 31.2864413 9 34 C9.99 34 10.98 34 12 34 C12 33.01 12 32.02 12 31 C12.56847656 30.78085938 13.13695312 30.56171875 13.72265625 30.3359375 C18.77431165 28.26130106 22.51996044 26.03687897 26.39453125 22.171875 C28 21 28 21 32 21 C32 20.34 32 19.68 32 19 C40.69674121 18.55779282 40.69674121 18.55779282 45 22 C45.61473083 25.10520935 45.61473083 25.10520935 45.59936523 28.97827148 C45.60330795 29.68429504 45.60725067 30.3903186 45.61131287 31.11773682 C45.61802882 33.45290973 45.58884918 35.78612992 45.55859375 38.12109375 C45.5543435 39.74389771 45.55201506 41.36670776 45.55152893 42.98951721 C45.54536001 46.39181036 45.52264672 49.79344605 45.48706055 53.19555664 C45.44182347 57.55478446 45.42703672 61.91341586 45.42332363 66.27285671 C45.41889199 69.62463761 45.40358219 72.97629351 45.3844471 76.3280201 C45.37557197 77.93516067 45.36883854 79.54231456 45.36428642 81.14947319 C45.35523161 83.39732056 45.33282969 85.64463219 45.30639648 87.89233398 C45.29043678 89.81069313 45.29043678 89.81069313 45.27415466 91.76780701 C45.01467906 94.82693868 44.7335291 96.50617138 43 99 C39.17414446 101.55057036 37.55736908 101.51454167 33 101 C29.84878247 99.56216307 26.92210133 97.85530243 24 96 C24 95.34 24 94.68 24 94 C26.9719385 95.12451727 29.33440687 96.22293791 32 98 C35.70544587 98.19850603 38.47005387 98.17664871 42 97 C43.35741422 93.66802592 43.14655218 90.11921266 43.17700195 86.56665039 C43.18983719 85.26172134 43.20267242 83.9567923 43.21589661 82.61231995 C43.22406294 81.19076925 43.23150687 79.76921426 43.23828125 78.34765625 C43.24235678 77.62941618 43.2464323 76.91117611 43.25063133 76.17117119 C43.27145056 72.37233649 43.28577234 68.57353752 43.29516602 64.7746582 C43.30624577 60.85598443 43.34067471 56.93787609 43.38033772 53.0194025 C43.40649582 50.00047256 43.41485688 46.98167788 43.41844749 43.96264458 C43.42331249 42.51816408 43.43492417 41.07368958 43.45348549 39.62932014 C43.47786383 37.60726763 43.47449341 35.58493855 43.4699707 33.56274414 C43.47583694 32.41342911 43.48170319 31.26411407 43.48774719 30.07997131 C42.89512957 26.33777594 41.6420464 24.66673466 39 22 C35.08896321 21.1002216 31.31307239 22.27894524 27.85351562 24.17871094 C25.7354812 25.66012818 23.74111965 27.2273099 21.75 28.875 C20.39216709 29.95766602 19.03282871 31.03844706 17.671875 32.1171875 C17.04087891 32.62088867 16.40988281 33.12458984 15.75976562 33.64355469 C10.10799136 38 10.10799136 38 7 38 C6.98541748 37.28457031 6.97083496 36.56914062 6.95581055 35.83203125 C6.88080787 32.55417564 6.78432045 29.27728083 6.6875 26 C6.66494141 24.87464844 6.64238281 23.74929687 6.61914062 22.58984375 C6.43803216 12.17725799 6.43803216 12.17725799 1.3972168 3.4140625 C0 2 0 2 0 0 Z " fill="#C67AD5" transform="translate(299,195)"/>
<path d="M0 0 C3.54912289 2.79773935 4.78970397 4.56077091 5.44845581 9.06915283 C5.61343144 13.01248741 5.61587328 16.93813714 5.55859375 20.8828125 C5.55433917 22.34438657 5.55201457 23.80596742 5.55152893 25.26754761 C5.54537907 28.32239666 5.52275293 31.37650796 5.48706055 34.43115234 C5.44170871 38.34302821 5.42702935 42.25423872 5.42332363 46.16635323 C5.41889208 49.18100518 5.40358439 52.19551815 5.3844471 55.21010971 C5.37558176 56.65257503 5.3688436 58.09505507 5.36428642 59.53754044 C5.35522693 61.5526055 5.33114374 63.56758607 5.30639648 65.58251953 C5.29575668 66.72802277 5.28511688 67.873526 5.27415466 69.05374146 C5.00339007 71.96356788 4.62728543 73.59893098 3 76 C-0.69486103 78.46324069 -2.63293092 78.38991688 -7 78 C-8.71875 76.48046875 -8.71875 76.48046875 -10 75 C-9.28972656 74.95101562 -8.57945312 74.90203125 -7.84765625 74.8515625 C-6.46900391 74.73941406 -6.46900391 74.73941406 -5.0625 74.625 C-4.14597656 74.55539062 -3.22945313 74.48578125 -2.28515625 74.4140625 C-1.53105469 74.27742188 -0.77695312 74.14078125 0 74 C0.495 73.01 0.495 73.01 1 72 C1.66 72 2.32 72 3 72 C2.89242208 63.72443579 2.77977324 55.44896274 2.66066074 47.17355728 C2.60551043 43.33090281 2.5521032 39.48824062 2.50268555 35.64550781 C2.4549254 31.93665809 2.40257864 28.22789881 2.34705925 24.51915741 C2.32668841 23.1046143 2.30796675 21.69004644 2.29092598 20.27545929 C2.26676528 18.29328191 2.23618277 16.31118596 2.20532227 14.32910156 C2.18977798 13.20103088 2.1742337 12.07296021 2.15821838 10.91070557 C2.02374524 8.43683547 1.71640172 6.35938887 1 4 C0.34 4 -0.32 4 -1 4 C-1 3.34 -1 2.68 -1 2 C-5.455 2.495 -5.455 2.495 -10 3 C-8.07192225 -0.8561555 -3.83132094 -0.53638493 0 0 Z " fill="#FDE1FE" transform="translate(338,216)"/>
<path d="M0 0 C13.07866664 13.07866664 16.18818454 46.42697189 16.27580261 63.75498962 C16.2742207 65.11287253 16.2691781 66.47075565 16.26074219 67.82861328 C16.25004454 69.86651594 16.26069771 71.90353041 16.2734375 73.94140625 C16.28172441 83.1324128 15.43296472 91.92727692 14 101 C13.67 101 13.34 101 13 101 C12.97250132 99.16675453 12.95338327 97.3333829 12.9375 95.5 C12.92589844 94.4790625 12.91429687 93.458125 12.90234375 92.40625 C12.99091855 89.31676094 13.34233262 86.35035999 13.7487793 83.29052734 C15.70946727 65.41377848 14.25157182 46.95341511 8 30 C7.34 29.34 6.68 28.68 6 28 C6 25.9904534 6.00501725 23.97861778 6.125 21.97265625 C6.1447357 19.67438447 6.1447357 19.67438447 4 17 C3.18220159 14.35982365 2.6190511 11.69729409 2 9 C0.02 9 -1.96 9 -4 9 C-2.25 5.125 -2.25 5.125 0 4 C0 2.68 0 1.36 0 0 Z " fill="#B068BF" transform="translate(405,183)"/>
<path d="M0 0 C2.93075604 1.33918554 5.39110656 3.1269483 8 5 C9.98561586 6.02826536 11.9802101 7.0405998 14 8 C14 8.33 14 8.66 14 9 C13.05125 9.12375 12.1025 9.2475 11.125 9.375 C7.91332809 9.71687177 7.91332809 9.71687177 6 12 C6.33 10.02 6.66 8.04 7 6 C1.85621879 3.83419738 -3.47770855 3.11605318 -9 4 C-11.21822668 5.65463148 -11.92674162 6.53357624 -12.36076355 9.29692078 C-12.35410172 10.19626846 -12.34743988 11.09561615 -12.34057617 12.0222168 C-12.34034958 13.04304855 -12.34012299 14.06388031 -12.33988953 15.11564636 C-12.32440567 16.21572525 -12.30892181 17.31580414 -12.29296875 18.44921875 C-12.28872391 19.5769722 -12.28447906 20.70472565 -12.28010559 21.86665344 C-12.26329311 25.47384367 -12.22563528 29.08047822 -12.1875 32.6875 C-12.17245653 35.13085132 -12.15876754 37.57421137 -12.14648438 40.01757812 C-12.11338116 46.01190882 -12.06315593 52.00591471 -12 58 C-15.11991126 54.88008874 -15.12425757 51.76778023 -15.14526367 47.49438477 C-15.15164352 46.60989151 -15.15802338 45.72539825 -15.16459656 44.81410217 C-15.16570938 43.86611252 -15.1668222 42.91812286 -15.16796875 41.94140625 C-15.17296135 40.46945045 -15.17296135 40.46945045 -15.17805481 38.96775818 C-15.18311325 36.89411894 -15.18546347 34.82047158 -15.18530273 32.74682617 C-15.18748942 29.5778257 -15.20565727 26.40917329 -15.22460938 23.24023438 C-15.22754349 21.22395952 -15.22952816 19.20768302 -15.23046875 17.19140625 C-15.23765427 16.24544083 -15.24483978 15.2994754 -15.25224304 14.32484436 C-15.22257965 5.76659023 -15.22257965 5.76659023 -13 2 C-8.72699124 -0.8486725 -5.01696206 -0.74546242 0 0 Z " fill="#C87BD8" transform="translate(226,225)"/>
<path d="M0 0 C0.73154297 0.01353516 1.46308594 0.02707031 2.21679688 0.04101562 C3.99902422 0.07596126 5.78086573 0.12975195 7.5625 0.1875 C7.5625 0.5175 7.5625 0.8475 7.5625 1.1875 C6.74007812 1.21328125 5.91765625 1.2390625 5.0703125 1.265625 C-2.14619341 1.6322835 -9.20372609 2.20445988 -15.4375 6.1875 C-16.7262195 8.22532183 -16.7262195 8.22532183 -17.4375 10.1875 C-18.7575 10.1875 -20.0775 10.1875 -21.4375 10.1875 C-21.63085938 10.81398437 -21.82421875 11.44046875 -22.0234375 12.0859375 C-22.28382813 12.90320313 -22.54421875 13.72046875 -22.8125 14.5625 C-23.06773437 15.37460938 -23.32296875 16.18671875 -23.5859375 17.0234375 C-24.4375 19.1875 -24.4375 19.1875 -26.4375 21.1875 C-26.65535903 24.1081003 -26.74894537 26.93663191 -26.75634766 29.85986328 C-26.76639328 30.75748383 -26.7764389 31.65510437 -26.78678894 32.57992554 C-26.81775475 35.55588116 -26.83469317 38.53174629 -26.8515625 41.5078125 C-26.87026338 43.56762478 -26.88983597 45.62742931 -26.9102478 47.68722534 C-26.96168913 53.11561527 -27.0012505 58.54403008 -27.03839111 63.97253418 C-27.0783557 69.5090964 -27.12948236 75.0455541 -27.1796875 80.58203125 C-27.27658881 91.45044754 -27.36094797 102.31892268 -27.4375 113.1875 C-27.7675 113.1875 -28.0975 113.1875 -28.4375 113.1875 C-28.55361949 101.23461794 -28.64232991 89.28187125 -28.69656086 77.32853889 C-28.72259602 71.77741624 -28.75788308 66.22668099 -28.81469727 60.67578125 C-28.86923368 55.31354873 -28.89896623 49.95168763 -28.91188622 44.58919907 C-28.92108732 42.54874708 -28.93905479 40.50831422 -28.96615028 38.46802139 C-29.24794437 16.35908419 -29.24794437 16.35908419 -21.44721985 8.07351685 C-15.10413578 1.93641341 -8.68371789 -0.30984904 0 0 Z " fill="#FEEBFE" transform="translate(200.4375,187.8125)"/>
<path d="M0 0 C31.02 0 62.04 0 94 0 C94 0.33 94 0.66 94 1 C83.488937 3.09610046 73.47154581 3.17354126 62.80859375 2.94140625 C61.08799536 2.91261859 59.36737766 2.88496512 57.64674377 2.85838318 C53.15852038 2.78674077 48.67061825 2.70293653 44.18267822 2.61547852 C36.96983188 2.47627958 29.75673415 2.3526366 22.54350471 2.23518181 C20.03290206 2.19203878 17.52251971 2.1416497 15.0120697 2.09046936 C13.47737029 2.06341269 11.94266689 2.03658055 10.40795898 2.01000977 C9.71340607 1.99392166 9.01885315 1.97783356 8.30325317 1.96125793 C5.0399318 1.91086388 2.11912394 1.98405288 -1 3 C-0.67 2.01 -0.34 1.02 0 0 Z " fill="#C572D8" transform="translate(191,322)"/>
<path d="M0 0 C10.56 0 21.12 0 32 0 C32 0.33 32 0.66 32 1 C30.79053711 1.01401855 30.79053711 1.01401855 29.55664062 1.02832031 C25.87049415 1.0823104 22.18557759 1.16590448 18.5 1.25 C17.2315625 1.26417969 15.963125 1.27835938 14.65625 1.29296875 C5.33155293 1.5357994 -1.48435632 2.93607419 -8.6171875 9.42578125 C-15.73408981 17.5277915 -15.86036174 26.7683236 -16 37 C-16.33 37 -16.66 37 -17 37 C-17.0270491 33.93744039 -17.04686298 30.8751214 -17.0625 27.8125 C-17.07087891 26.94818359 -17.07925781 26.08386719 -17.08789062 25.19335938 C-17.12915363 14.42371544 -17.12915363 14.42371544 -14.5625 11.1875 C-13 10 -13 10 -11 10 C-10.773125 9.236875 -10.54625 8.47375 -10.3125 7.6875 C-8.70092028 4.38759866 -7.31264258 3.4985764 -4 2 C-2.68 2 -1.36 2 0 2 C0 1.34 0 0.68 0 0 Z " fill="#C97CD6" transform="translate(188,187)"/>
<path d="M0 0 C1.85437862 0.14311296 3.70849429 0.28963451 5.5625 0.4375 C6.59503906 0.51871094 7.62757813 0.59992188 8.69140625 0.68359375 C10.87256792 0.89218182 13.04854545 1.16694807 15.21240234 1.51147461 C19.13340815 2.01720702 22.96576514 2.14440491 26.91015625 2.1328125 C28.00595253 2.13424759 28.00595253 2.13424759 29.12388611 2.13571167 C30.65754279 2.13638781 32.19120244 2.13457332 33.72485352 2.13037109 C36.05947338 2.12500695 38.39390159 2.13033935 40.72851562 2.13671875 C42.22656292 2.13605802 43.7246101 2.13477696 45.22265625 2.1328125 C45.91343765 2.13483673 46.60421906 2.13686096 47.31593323 2.13894653 C51.31711448 2.11976885 55.07064193 1.73537963 59 1 C61.67810075 0.88803927 64.31732686 0.95374701 67 1 C67 1.33 67 1.66 67 2 C66.43410156 2.13277344 65.86820312 2.26554687 65.28515625 2.40234375 C64.18494141 2.66724609 64.18494141 2.66724609 63.0625 2.9375 C62.33160156 3.11152344 61.60070312 3.28554688 60.84765625 3.46484375 C59.00030102 3.83887569 59.00030102 3.83887569 58 5 C55.12733745 5.07627888 52.27844968 5.09071387 49.40625 5.0625 C48.1134613 5.05682007 48.1134613 5.05682007 46.79455566 5.05102539 C43.09068151 5.03459577 39.38691547 5.006457 35.68310547 4.97949219 C32.98665875 4.96150009 30.29022955 4.94934712 27.59375 4.9375 C26.32658142 4.92505249 26.32658142 4.92505249 25.03381348 4.91235352 C23.02234829 4.90380784 21.01077458 4.94660715 19 5 C18.67 5.33 18.34 5.66 18 6 C16.33382885 6.04063832 14.66611905 6.042721 13 6 C13 5.34 13 4.68 13 4 C8.71 3.01 4.42 2.02 0 1 C0 0.67 0 0.34 0 0 Z " fill="#1B041F" transform="translate(221,415)"/>
<path d="M0 0 C2.31 0 4.62 0 7 0 C7 0.66 7 1.32 7 2 C8.2065625 1.7215625 8.2065625 1.7215625 9.4375 1.4375 C13.78253084 0.90389972 17.68989724 1.3774296 22 2 C22 1.34 22 0.68 22 0 C24.96175123 0.61277612 26.38058783 1.25372522 29 3 C28.34 3.66 27.68 4.32 27 5 C29.31 5.66 31.62 6.32 34 7 C30.15296239 8.40326186 27.12950826 7.6395241 23.1875 6.8125 C22.53966553 6.67739014 21.89183105 6.54228027 21.22436523 6.40307617 C14.07906942 4.87359942 7.03594953 2.96607384 0 1 C0 0.67 0 0.34 0 0 Z " fill="#B569C3" transform="translate(203,409)"/>
<path d="M0 0 C38.07092961 -0.82555811 38.07092961 -0.82555811 53 4 C53 4.33 53 4.66 53 5 C50.87506859 5.02693575 48.75004088 5.04636628 46.625 5.0625 C45.44164062 5.07410156 44.25828125 5.08570312 43.0390625 5.09765625 C40 5 40 5 38 4 C36.50420396 3.79907217 35.00303276 3.63663934 33.5 3.5 C29.22222222 3.11111111 29.22222222 3.11111111 27 2 C24.9692523 1.84588894 22.93393579 1.75017547 20.8984375 1.68359375 C19.68671875 1.64169922 18.475 1.59980469 17.2265625 1.55664062 C15.95554687 1.51732422 14.68453125 1.47800781 13.375 1.4375 C11.456875 1.37272461 11.456875 1.37272461 9.5 1.30664062 C6.33344652 1.20030114 3.16681247 1.09827167 0 1 C0 0.67 0 0.34 0 0 Z " fill="#9451A0" transform="translate(242,89)"/>
<path d="M0 0 C0.74056641 0.00902344 1.48113281 0.01804688 2.24414062 0.02734375 C4.05873467 0.05075787 5.87316071 0.08662385 7.6875 0.125 C7.6875 0.455 7.6875 0.785 7.6875 1.125 C6.86507812 1.15078125 6.04265625 1.1765625 5.1953125 1.203125 C-2.02119341 1.5697835 -9.07872609 2.14195988 -15.3125 6.125 C-16.6012195 8.16282183 -16.6012195 8.16282183 -17.3125 10.125 C-18.6325 10.125 -19.9525 10.125 -21.3125 10.125 C-21.48265625 10.71667969 -21.6528125 11.30835938 -21.828125 11.91796875 C-23.31360338 16.76157645 -24.78109353 20.35004826 -28.3125 24.125 C-28.03159036 17.52362336 -25.5498561 13.14772814 -21.3125 8.125 C-14.67520289 2.03216867 -9.0473323 -0.21021505 0 0 Z " fill="#FBDFFD" transform="translate(200.3125,187.875)"/>
<path d="M0 0 C4.50783931 1.50607534 6.43698812 5.12968697 8.875 8.9375 C9.31118652 9.60612061 9.74737305 10.27474121 10.19677734 10.96362305 C20 26.15843669 20 26.15843669 20 30 C18.68 29.67 17.36 29.34 16 29 C15.89042969 28.43410156 15.78085937 27.86820313 15.66796875 27.28515625 C15.50941406 26.55167969 15.35085938 25.81820312 15.1875 25.0625 C15.03667969 24.33160156 14.88585937 23.60070312 14.73046875 22.84765625 C14.36888672 21.93306641 14.36888672 21.93306641 14 21 C13.01 20.67 12.02 20.34 11 20 C10.26554149 18.3641606 9.54041041 16.72290956 8.8828125 15.0546875 C7.90473484 12.77827666 6.76568046 10.69217791 5.5 8.5625 C4.89671875 7.54349609 4.89671875 7.54349609 4.28125 6.50390625 C3.8584375 6.00761719 3.435625 5.51132813 3 5 C2.01 5 1.02 5 0 5 C0 3.35 0 1.7 0 0 Z " fill="#B767C7" transform="translate(385,153)"/>
<path d="M0 0 C2.64 0 5.28 0 8 0 C3.51209647 4.08586217 -1.51059518 6.27295745 -7 8.6875 C-7.88945312 9.09033203 -8.77890625 9.49316406 -9.6953125 9.90820312 C-13.81188316 11.74222752 -17.53772892 13.23243014 -22 14 C-22 13.34 -22 12.68 -22 12 C-21.34 12 -20.68 12 -20 12 C-20 11.34 -20 10.68 -20 10 C-17.69 10 -15.38 10 -13 10 C-13 9.34 -13 8.68 -13 8 C-10.69 7.34 -8.38 6.68 -6 6 C-6 5.34 -6 4.68 -6 4 C-4.35 4 -2.7 4 -1 4 C-0.67 2.68 -0.34 1.36 0 0 Z " fill="#BD6ECD" transform="translate(332,395)"/>
<path d="M0 0 C5.95585501 0.29779275 9.71226745 3.11786377 14 7 C16.36086122 10.54129184 16.57269578 11.82750218 16 16 C13.21176596 20.06285531 10.44200848 22.8390229 6 25 C5.34 25 4.68 25 4 25 C5.25125384 21.24623848 6.5652404 20.75926711 10 19 C10.66 19 11.32 19 12 19 C12.33 15.37 12.66 11.74 13 8 C12.01 8 11.02 8 10 8 C8.33333333 6.33333333 6.66666667 4.66666667 5 3 C2.33466965 1.680982 2.33466965 1.680982 0 1 C0 0.67 0 0.34 0 0 Z " fill="#C379D4" transform="translate(251,242)"/>
<path d="M0 0 C-4.04696147 2.3500367 -8.10541568 4.67729831 -12.18310547 6.97363281 C-13.7639159 7.86663564 -15.33768249 8.77208519 -16.91015625 9.6796875 C-22.1346232 12.53820574 -25.18608977 13.64306159 -31 12 C-31 11.01 -31 10.02 -31 9 C-30.32453125 9.03480469 -29.6490625 9.06960938 -28.953125 9.10546875 C-27.61507812 9.14607422 -27.61507812 9.14607422 -26.25 9.1875 C-25.36828125 9.22230469 -24.4865625 9.25710938 -23.578125 9.29296875 C-20.50910148 8.94421608 -19.35773127 7.92201092 -17 6 C-15.783125 5.67 -14.56625 5.34 -13.3125 5 C-12.219375 4.67 -11.12625 4.34 -10 4 C-9.67 3.01 -9.34 2.02 -9 1 C-3.79245283 -1.26415094 -3.79245283 -1.26415094 0 0 Z " fill="#C77CD5" transform="translate(246,273)"/>
<path d="M0 0 C-6.89451275 6.62780046 -13.70246782 12.15308565 -22 17 C-21.45276317 13.62537285 -20.9451 11.91765 -19 9 C-17 8.66666667 -15 8.33333333 -13 8 C-12.34 7.01 -11.68 6.02 -11 5 C-10.34 5 -9.68 5 -9 5 C-9 4.34 -9 3.68 -9 3 C-8.34 3 -7.68 3 -7 3 C-7 2.34 -7 1.68 -7 1 C-3.375 -1.125 -3.375 -1.125 0 0 Z " fill="#BB68CC" transform="translate(368,375)"/>
<path d="M0 0 C1.32 0.66 2.64 1.32 4 2 C0.34880098 7.70985379 -3.48244546 12.94464135 -8 18 C-8.59375 16.08984375 -8.59375 16.08984375 -9 14 C-8.505 13.525625 -8.01 13.05125 -7.5 12.5625 C-7.005 12.046875 -6.51 11.53125 -6 11 C-6.18068911 8.51176074 -6.18068911 8.51176074 -7 6 C-7.2784375 4.8553125 -7.2784375 4.8553125 -7.5625 3.6875 C-7.706875 3.130625 -7.85125 2.57375 -8 2 C-6.02 2.495 -6.02 2.495 -4 3 C-4 3.66 -4 4.32 -4 5 C-2.68 5 -1.36 5 0 5 C0 3.35 0 1.7 0 0 Z " fill="#C46CD5" transform="translate(384,350)"/>
<path d="M0 0 C0.99 0.33 1.98 0.66 3 1 C0.27131845 3.25058884 -2.45803208 5.50036495 -5.1875 7.75 C-5.95642578 8.38421875 -6.72535156 9.0184375 -7.51757812 9.671875 C-11.32392578 12.80843616 -15.13640388 15.93389967 -19 19 C-19 17.68 -19 16.36 -19 15 C-18.071875 14.87625 -18.071875 14.87625 -17.125 14.75 C-14.85293657 14.21759987 -14.85293657 14.21759987 -14.03515625 12.18359375 C-13.69355469 11.46300781 -13.35195312 10.74242187 -13 10 C-10.15334373 5.74323536 -8.22583717 3.29657351 -3.125 2.0625 C-2.09375 2.041875 -1.0625 2.02125 0 2 C0 1.34 0 0.68 0 0 Z " fill="#1A0420" transform="translate(159,118)"/>
<path d="M0 0 C14.19 0 28.38 0 43 0 C43 0.33 43 0.66 43 1 C41.55886841 1.029729 41.55886841 1.029729 40.08862305 1.06005859 C14.47931817 1.54583411 14.47931817 1.54583411 -11 4 C-11 3.34 -11 2.68 -11 2 C-7.37 2 -3.74 2 0 2 C0 1.34 0 0.68 0 0 Z " fill="#18021E" transform="translate(234,88)"/>
<path d="M0 0 C1.29539465 2.13359119 2.03274515 3.47607754 1.875 6 C0.73609632 8.60320841 -0.94076608 10.06556814 -3 12 C-3.99 13.485 -3.99 13.485 -5 15 C-5.495 15.45375 -5.99 15.9075 -6.5 16.375 C-8.19113833 17.99425714 -8.19113833 17.99425714 -8.9375 20.625 C-9.288125 21.40875 -9.63875 22.1925 -10 23 C-12.06640625 23.6484375 -12.06640625 23.6484375 -14 24 C-10.46284842 17.41885739 -6.61732712 11.06356145 -2.671875 4.72265625 C-1.04312679 2.15870053 -1.04312679 2.15870053 0 0 Z " fill="#210928" transform="translate(403,328)"/>
<path d="M0 0 C0.98120464 3.05263664 0.98120464 4.94736336 0 8 C-0.66 8 -1.32 8 -2 8 C-2.33 9.98 -2.66 11.96 -3 14 C-3.66 14 -4.32 14 -5 14 C-5.12117188 14.58007812 -5.24234375 15.16015625 -5.3671875 15.7578125 C-6.33735474 20.28028442 -7.43397783 24.63750966 -9 29 C-9.66 29 -10.32 29 -11 29 C-9.70003768 22.24836325 -7.68141284 16.29283767 -4.9375 10 C-4.57333984 9.14277344 -4.20917969 8.28554687 -3.83398438 7.40234375 C-1.15647755 1.15647755 -1.15647755 1.15647755 0 0 Z " fill="#B36AC1" transform="translate(110,178)"/>
<path d="M0 0 C0.66 0 1.32 0 2 0 C0.06375702 6.20477864 -2.25609141 12.10825719 -5 18 C-5.33 18 -5.66 18 -6 18 C-7.10228696 13.59085217 -7.07654536 9.51617599 -7 5 C-6.67 5.99 -6.34 6.98 -6 8 C-5.34 8 -4.68 8 -4 8 C-3.8453125 7.13375 -3.8453125 7.13375 -3.6875 6.25 C-2.89103535 3.64338842 -1.80934723 2.0264689 0 0 Z " fill="#C36BD3" transform="translate(408,312)"/>
<path d="M0 0 C0.33 0 0.66 0 1 0 C1.0093457 0.589021 1.01869141 1.17804199 1.02832031 1.78491211 C1.08263875 4.50323016 1.1661584 7.21993848 1.25 9.9375 C1.26417969 10.86369141 1.27835938 11.78988281 1.29296875 12.74414062 C1.59300344 21.29512925 3.77521731 28.24301831 9.75 34.5625 C10.36359375 35.22378906 10.9771875 35.88507813 11.609375 36.56640625 C12.06828125 37.03949219 12.5271875 37.51257813 13 38 C11.515 38.495 11.515 38.495 10 39 C10 38.34 10 37.68 10 37 C9.39542969 36.76023437 8.79085937 36.52046875 8.16796875 36.2734375 C5.52518455 34.7210994 4.73062511 33.31809563 3.3125 30.625 C2.89613281 29.85414063 2.47976562 29.08328125 2.05078125 28.2890625 C0.26495311 24.39874543 -0.12246703 21.06432964 -0.09765625 16.796875 C-0.09443359 15.8171875 -0.09121094 14.8375 -0.08789062 13.828125 C-0.07951172 12.81234375 -0.07113281 11.7965625 -0.0625 10.75 C-0.05798828 9.71875 -0.05347656 8.6875 -0.04882812 7.625 C-0.03706088 5.08327427 -0.02062011 2.54166681 0 0 Z " fill="#C87FD6" transform="translate(171,280)"/>
<path d="M0 0 C8.5317541 1.14554614 16.06889353 3.69642306 24 7 C24 7.66 24 8.32 24 9 C18.1977825 9.36263859 14.36000789 8.25684543 9 6 C9 5.01 9 4.02 9 3 C7.700625 2.87625 6.40125 2.7525 5.0625 2.625 C2.84765625 2.4140625 2.84765625 2.4140625 1 2 C0.67 1.34 0.34 0.68 0 0 Z " fill="#BC6CCC" transform="translate(295,94)"/>
<path d="M0 0 C3.24671279 4.0487511 6.47309896 8.11308702 9.6875 12.1875 C10.18572266 12.81591797 10.68394531 13.44433594 11.19726562 14.09179688 C14.88536352 18.77072704 14.88536352 18.77072704 16 21 C13.625 20.8125 13.625 20.8125 11 20 C10.28272222 18.35448038 9.61674772 16.68577711 9 15 C8.34 14.67 7.68 14.34 7 14 C5 13 5 13 3.8125 10.625 C3.13161272 8.42521032 2.49944183 6.24748824 2 4 C1.34 4 0.68 4 0 4 C0 2.68 0 1.36 0 0 Z " fill="#230A2B" transform="translate(119,344)"/>
<path d="M0 0 C3.98750971 1.74310378 5.84309163 3.66225579 8.03662109 7.37890625 C10.06066691 12.88578812 9.21894014 18.74550942 8.8125 24.5 C8.74224609 25.799375 8.67199219 27.09875 8.59960938 28.4375 C8.42370695 31.62719727 8.22320754 34.81332231 8 38 C7.67 38 7.34 38 7 38 C6.98541748 37.28457031 6.97083496 36.56914062 6.95581055 35.83203125 C6.88080787 32.55417564 6.78432045 29.27728083 6.6875 26 C6.66494141 24.87464844 6.64238281 23.74929687 6.61914062 22.58984375 C6.43803216 12.17725799 6.43803216 12.17725799 1.3972168 3.4140625 C0 2 0 2 0 0 Z " fill="#CD83DB" transform="translate(299,195)"/>
<path d="M0 0 C3.08358247 3.08358247 4.13333128 6.97597998 5.6875 11 C6.02072266 11.83273438 6.35394531 12.66546875 6.69726562 13.5234375 C7.00728516 14.32007813 7.31730469 15.11671875 7.63671875 15.9375 C7.92248779 16.66839844 8.20825684 17.39929688 8.50268555 18.15234375 C9 20 9 20 8 22 C4.10014426 17.84015388 3.10830253 14.44915409 2 9 C0.02 9 -1.96 9 -4 9 C-2.25 5.125 -2.25 5.125 0 4 C0 2.68 0 1.36 0 0 Z " fill="#B764C8" transform="translate(405,183)"/>
<path d="M0 0 C1.125 1.625 1.125 1.625 2 4 C1.35395074 6.00675479 0.68385797 8.00581277 0 10 C-0.37737631 12.1594311 -0.71027628 14.32707209 -1 16.5 C-1.58569457 20.89270929 -2.49224919 24.82855608 -4 29 C-4.33 29 -4.66 29 -5 29 C-5.22373959 22.74972621 -4.42881967 17.21434164 -3.0625 11.125 C-2.78889648 9.84496094 -2.78889648 9.84496094 -2.50976562 8.5390625 C-1.15420387 2.30840774 -1.15420387 2.30840774 0 0 Z " fill="#AC64BA" transform="translate(98,208)"/>
<path d="M0 0 C0 3.67219242 -0.8030009 6.53500259 -2 10 C-2.99 10.66 -3.98 11.32 -5 12 C-5.2502157 15.08365871 -5.2502157 15.08365871 -5 18 C-6.65 17.67 -8.3 17.34 -10 17 C-8.68018255 12.31812124 -6.80204328 8.99625079 -3.875 5.125 C-3.15054688 4.15820312 -2.42609375 3.19140625 -1.6796875 2.1953125 C-1.12539062 1.47085938 -0.57109375 0.74640625 0 0 Z " fill="#B163BF" transform="translate(123,157)"/>
<path d="M0 0 C2 1.25 2 1.25 4 3 C4 4.32 4 5.64 4 7 C0.7 6.34 -2.6 5.68 -6 5 C-6.66 6.32 -7.32 7.64 -8 9 C-9.32 8.67 -10.64 8.34 -12 8 C-10.37615858 6.85252535 -8.75088944 5.7070709 -7.125 4.5625 C-6.22007812 3.92441406 -5.31515625 3.28632812 -4.3828125 2.62890625 C-2 1 -2 1 0 0 Z " fill="#B868C9" transform="translate(172,112)"/>
<path d="M0 0 C0.33 1.32 0.66 2.64 1 4 C-0.1446875 4.8353125 -0.1446875 4.8353125 -1.3125 5.6875 C-4.08208989 7.80404047 -4.08208989 7.80404047 -5.4375 10.5625 C-7.47001512 13.73322358 -9.52637976 14.66967736 -13 16 C-13.66 15.67 -14.32 15.34 -15 15 C-10 10 -5 5 0 0 Z " fill="#2A0D31" transform="translate(380,362)"/>
<path d="M0 0 C2.07474364 3.11211546 2.89429928 5.61380437 3.9375 9.1875 C5.44006628 14.21856461 7.08362653 19.11324766 9 24 C8.34 24 7.68 24 7 24 C-1.03644647 8.43963554 -1.03644647 8.43963554 0 0 Z " fill="#280B2F" transform="translate(97,296)"/>
<path d="M0 0 C4.44209357 -0.10834375 8.61414671 0.29826347 13 1 C13 1.99 13 2.98 13 4 C13.66 4 14.32 4 15 4 C15 5.32 15 6.64 15 8 C11.45756548 6.63408831 8.07372071 5.09068516 4.6875 3.375 C3.80449219 2.92898437 2.92148437 2.48296875 2.01171875 2.0234375 C1.34785156 1.68570313 0.68398438 1.34796875 0 1 C0 0.67 0 0.34 0 0 Z " fill="#1D0821" transform="translate(326,104)"/>
<path d="M0 0 C2.33944736 0.28730055 4.6739143 0.61936779 7 1 C7 1.33 7 1.66 7 2 C2.29796986 2.92947107 -2.24812235 3.13223651 -7.0234375 3.09765625 C-7.76961334 3.0962413 -8.51578918 3.09482635 -9.28457642 3.09336853 C-11.64809318 3.08780874 -14.01151227 3.07526389 -16.375 3.0625 C-17.98567571 3.0574798 -19.59635291 3.0529178 -21.20703125 3.04882812 C-25.13805799 3.03785251 -29.06901248 3.02061596 -33 3 C-33 2.67 -33 2.34 -33 2 C-31.55379272 1.96241577 -31.55379272 1.96241577 -30.07836914 1.92407227 C-26.51312158 1.83014694 -22.94807567 1.72989061 -19.38305664 1.62768555 C-17.83785711 1.58428015 -16.29260786 1.54260929 -14.74731445 1.50268555 C-12.53060904 1.44511801 -10.3141552 1.38138576 -8.09765625 1.31640625 C-7.4028566 1.29969376 -6.70805695 1.28298126 -5.99220276 1.26576233 C-2.71237971 1.43497144 -2.71237971 1.43497144 0 0 Z " fill="#AD64C0" transform="translate(273,415)"/>
<path d="M0 0 C1.98 0.99 1.98 0.99 4 2 C4 2.66 4 3.32 4 4 C4.66 4 5.32 4 6 4 C10.40774487 13.41002278 10.40774487 13.41002278 11 18 C7.31420878 14.77085548 5.31643755 11.11346469 3.25 6.75 C2.93417969 6.1003125 2.61835937 5.450625 2.29296875 4.78125 C1.52126035 3.19106299 0.75959725 1.59600771 0 0 Z " fill="#BA6BCB" transform="translate(110,328)"/>
<path d="M0 0 C3.02138567 -0.08149592 6.04053905 -0.14073421 9.0625 -0.1875 C9.91005859 -0.21263672 10.75761719 -0.23777344 11.63085938 -0.26367188 C17.96715973 -0.33706532 22.98355563 0.37277426 27.9375 4.6875 C28.4634375 5.3371875 28.4634375 5.3371875 29 6 C28.67 6.66 28.34 7.32 28 8 C27.319375 7.38125 26.63875 6.7625 25.9375 6.125 C20.3684465 2.096323 14.21651901 1.66721675 7.5625 1.375 C6.46518555 1.31699219 6.46518555 1.31699219 5.34570312 1.2578125 C3.56416468 1.16466016 1.78211878 1.08129714 0 1 C0 0.67 0 0.34 0 0 Z " fill="#C97FD7" transform="translate(269,187)"/>
<path d="M0 0 C-3.88127014 2.10320136 -7.99193581 3.54309984 -12.125 5.0625 C-17.13852804 6.85122181 -17.13852804 6.85122181 -22 9 C-22.33 7.68 -22.66 6.36 -23 5 C-21.576875 4.87625 -21.576875 4.87625 -20.125 4.75 C-16.79626577 4.29761624 -14.02094241 3.25764251 -10.9375 1.9375 C-7.1188489 0.32258953 -4.20601284 -0.44273819 0 0 Z " fill="#200520" transform="translate(208,96)"/>
<path d="M0 0 C2.52121432 0.62349358 5.04196931 1.24875361 7.5625 1.875 C8.26697266 2.04902344 8.97144531 2.22304688 9.69726562 2.40234375 C14.16024998 3.51294815 18.58487052 4.71201216 23 6 C23 6.33 23 6.66 23 7 C18.13681546 7.19452738 14.5497359 6.68142414 10 5 C8.33911955 4.63893903 6.67381019 4.29537827 5 4 C4.67 4.66 4.34 5.32 4 6 C2.04783565 4.04783565 1.15173355 2.46800047 0 0 Z " fill="#1F0621" transform="translate(198,408)"/>
<path d="M0 0 C2.96175123 0.61277612 4.38058783 1.25372522 7 3 C6.34 3.66 5.68 4.32 5 5 C7.31 5.66 9.62 6.32 12 7 C8.18243176 8.37432457 4.92744671 7.67975039 1 7 C-0.0625 4.625 -0.0625 4.625 -1 2 C-0.67 1.34 -0.34 0.68 0 0 Z " fill="#C168D2" transform="translate(225,409)"/>
<path d="M0 0 C0.33 0 0.66 0 1 0 C1.10829314 2.89684158 1.18743954 5.78961019 1.25 8.6875 C1.28351563 9.50412109 1.31703125 10.32074219 1.3515625 11.16210938 C1.42031147 15.40735834 1.37134905 17.4321814 -1.015625 21.08203125 C-1.67046875 21.71496094 -2.3253125 22.34789062 -3 23 C-2.06024943 15.32537035 -1.0277503 7.66322553 0 0 Z " fill="#25092D" transform="translate(420,269)"/>
<path d="M0 0 C4.15151338 1.44202476 7.29978445 3.5010438 10.8125 6.125 C11.78832031 6.84945313 12.76414062 7.57390625 13.76953125 8.3203125 C14.50558594 8.87460937 15.24164063 9.42890625 16 10 C15.01 10.495 15.01 10.495 14 11 C10.04 8.36 6.08 5.72 2 3 C1.67 5.31 1.34 7.62 1 10 C0.67 10 0.34 10 0 10 C0 6.7 0 3.4 0 0 Z " fill="#C378D1" transform="translate(307,278)"/>
<path d="M0 0 C2.375 1.75 2.375 1.75 4 4 C4 5.32 4 6.64 4 8 C3.34 8 2.68 8 2 8 C1.67 6.68 1.34 5.36 1 4 C0.34 4 -0.32 4 -1 4 C-1 3.34 -1 2.68 -1 2 C-5.455 2.495 -5.455 2.495 -10 3 C-8.05861972 -0.88276057 -3.8576575 -0.39363852 0 0 Z " fill="#FDE3FE" transform="translate(338,216)"/>
<path d="M0 0 C0.33 0.99 0.66 1.98 1 3 C0.2575 3.226875 -0.485 3.45375 -1.25 3.6875 C-4.17770023 4.81808583 -4.17770023 4.81808583 -5.875 7.5625 C-8 10 -8 10 -11.75 10.8125 C-13.35875 10.9053125 -13.35875 10.9053125 -15 11 C-12.31935789 8.01837352 -9.15182515 6.00281004 -5.8125 3.8125 C-4.72582031 3.09707031 -3.63914062 2.38164062 -2.51953125 1.64453125 C-1.68808594 1.10183594 -0.85664063 0.55914062 0 0 Z " fill="#1F0624" transform="translate(357,384)"/>
<path d="M0 0 C4.26205106 0.47356123 6.28693793 2.84698192 9 6 C9.8125 8.3125 9.8125 8.3125 10 10 C7.00779732 8.63629701 4.70973471 7.05091917 2.25 4.875 C1.63640625 4.33617187 1.0228125 3.79734375 0.390625 3.2421875 C-0.06828125 2.83226562 -0.5271875 2.42234375 -1 2 C-0.67 1.34 -0.34 0.68 0 0 Z " fill="#B365C3" transform="translate(147,374)"/>
<path d="M0 0 C5.68502535 1.64566523 10.76681636 4.29032784 16 7 C15.01 7.66 14.02 8.32 13 9 C12.278125 8.525625 11.55625 8.05125 10.8125 7.5625 C8.10524774 6.05847097 6.03805725 5.43400818 3 5 C3 4.34 3 3.68 3 3 C2.01 3 1.02 3 0 3 C0 2.01 0 1.02 0 0 Z " fill="#BB6DCD" transform="translate(320,102)"/>
<path d="M0 0 C0.99 0.33 1.98 0.66 3 1 C3.88277755 5.51815281 4.10589503 9.77512694 4.0625 14.375 C4.05347656 15.62023437 4.04445313 16.86546875 4.03515625 18.1484375 C4.02355469 19.08945313 4.01195312 20.03046875 4 21 C3.67 21 3.34 21 3 21 C2.01 14.07 1.02 7.14 0 0 Z " fill="#220628" transform="translate(417,216)"/>
<path d="M0 0 C0 0.33 0 0.66 0 1 C-9.95068867 3.06170091 -18.9790201 2.95192877 -29 2 C-29 1.67 -29 1.34 -29 1 C-19.31629705 0.30386731 -9.71614177 -0.14973506 0 0 Z " fill="#CD77E0" transform="translate(285,322)"/>
<path d="M0 0 C0 0.99 0 1.98 0 3 C-0.66 3 -1.32 3 -2 3 C-2 3.66 -2 4.32 -2 5 C-6.455 6.485 -6.455 6.485 -11 8 C-11.66 7.34 -12.32 6.68 -13 6 C-8.71 4.02 -4.42 2.04 0 0 Z " fill="#26092D" transform="translate(335,398)"/>
<path d="M0 0 C1.32 0 2.64 0 4 0 C5.5625 2.3125 5.5625 2.3125 7 5 C7.8353125 5.7425 7.8353125 5.7425 8.6875 6.5 C10 8 10 8 10.1875 10.6875 C10.125625 11.450625 10.06375 12.21375 10 13 C6.13244574 9.42994992 2.97239763 5.32979254 0 1 C0 0.67 0 0.34 0 0 Z " fill="#B76BCB" transform="translate(122,348)"/>
<path d="M0 0 C-0.99 1.485 -0.99 1.485 -2 3 C-4.32156597 3.40729228 -6.6568787 3.74438677 -9 4 C-9.33 4.33 -9.66 4.66 -10 5 C-12.67058851 5.14115161 -15.32432238 5.04247107 -18 5 C-14.72569418 3.25212177 -11.38657595 2.00747118 -7.875 0.8125 C-6.82054687 0.44769531 -5.76609375 0.08289063 -4.6796875 -0.29296875 C-2 -1 -2 -1 0 0 Z " fill="#270A2C" transform="translate(314,409)"/>
<path d="M0 0 C0.33 0 0.66 0 1 0 C1.34548714 6.33393082 0.29342747 11.10261508 -2 17 C-2.66 17 -3.32 17 -4 17 C-2.76123355 11.30694567 -1.43723997 5.64629987 0 0 Z " fill="#290D30" transform="translate(416,292)"/>
<path d="M0 0 C3.08917348 0.3432415 4.77105979 0.82193539 7.25 2.75 C9.17806461 5.22894021 9.6567585 6.91082652 10 10 C2.51708428 3.84965831 2.51708428 3.84965831 0 0 Z " fill="#210626" transform="translate(366,130)"/>
<path d="M0 0 C4.83290538 4.049191 6.3833652 7.96719209 8 14 C7.34 14.66 6.68 15.32 6 16 C4.9955866 13.7101766 3.99632388 11.4183401 3 9.125 C2.71382813 8.47402344 2.42765625 7.82304687 2.1328125 7.15234375 C0 2.2265625 0 2.2265625 0 0 Z " fill="#B46CC3" transform="translate(102,310)"/>
<path d="M0 0 C0.66 0 1.32 0 2 0 C3.85242775 8.67272994 3.85242775 8.67272994 1.8359375 11.8125 C0.25 13.1875 0.25 13.1875 -3 15 C-3.99 14.67 -4.98 14.34 -6 14 C-5.195625 13.38125 -4.39125 12.7625 -3.5625 12.125 C-0.96125481 10.25835959 -0.96125481 10.25835959 0 8 C0.0689472 6.62657169 0.08467708 5.24997898 0.0625 3.875 C0.041875 2.59625 0.02125 1.3175 0 0 Z " fill="#FADCFD" transform="translate(266,250)"/>
<path d="M0 0 C0.99 0 1.98 0 3 0 C5.29612756 11.52164009 5.29612756 11.52164009 5 17 C4.67 17 4.34 17 4 17 C3.32844651 14.73050898 2.6626037 12.4596039 2 10.1875 C1.443125 8.29064453 1.443125 8.29064453 0.875 6.35546875 C0 3 0 3 0 0 Z " fill="#B56BC4" transform="translate(97,293)"/>
<path d="M0 0 C2.33944736 0.28730055 4.6739143 0.61936779 7 1 C6.01 1.495 6.01 1.495 5 2 C4.690625 2.639375 4.38125 3.27875 4.0625 3.9375 C3 6 3 6 0 8 C-0.38063221 5.6739143 -0.71269945 3.33944736 -1 1 C-0.67 0.67 -0.34 0.34 0 0 Z " fill="#D966F0" transform="translate(215,229)"/>
<path d="M0 0 C0.33 0.99 0.66 1.98 1 3 C-0.40445835 5.2636564 -2.1967913 7.0208685 -4 9 C-5.32 8.67 -6.64 8.34 -8 8 C-5.36 5.36 -2.72 2.72 0 0 Z " fill="#B36AC5" transform="translate(143,134)"/>
<path d="M0 0 C0.66 0.33 1.32 0.66 2 1 C1 3 1 3 -0.92578125 3.81640625 C-2.10720703 4.18572266 -2.10720703 4.18572266 -3.3125 4.5625 C-4.09238281 4.81128906 -4.87226563 5.06007813 -5.67578125 5.31640625 C-6.44277344 5.54199219 -7.20976562 5.76757812 -8 6 C-8.71542969 6.21527344 -9.43085938 6.43054688 -10.16796875 6.65234375 C-12 7 -12 7 -14 6 C-12.23002526 5.18563132 -10.45898848 4.3735706 -8.6875 3.5625 C-7.70136719 3.11003906 -6.71523437 2.65757813 -5.69921875 2.19140625 C-3 1 -3 1 0 0 Z " fill="#A760B2" transform="translate(201,98)"/>
<path d="M0 0 C5.39807026 0.77115289 8.74247688 2.53855422 12.3125 6.6875 C13.1478125 7.8321875 13.1478125 7.8321875 14 9 C10.82010194 7.46205865 7.78518026 5.743521 4.75 3.9375 C3.85796875 3.41027344 2.9659375 2.88304688 2.046875 2.33984375 C1.37140625 1.89769531 0.6959375 1.45554687 0 1 C0 0.67 0 0.34 0 0 Z " fill="#1F0725" transform="translate(341,112)"/>
<path d="M0 0 C1.58323688 -0.027193 3.16661062 -0.04648306 4.75 -0.0625 C6.07257813 -0.07990234 6.07257813 -0.07990234 7.421875 -0.09765625 C9.7818838 -0.00826198 11.74498524 0.33087179 14 1 C14 1.99 14 2.98 14 4 C9.38 3.01 4.76 2.02 0 1 C0 0.67 0 0.34 0 0 Z " fill="#230729" transform="translate(290,92)"/>
<path d="M0 0 C5.28 0.33 10.56 0.66 16 1 C16 1.33 16 1.66 16 2 C14.10507254 2.19644384 12.20899097 2.38177288 10.3125 2.5625 C8.72888672 2.71912109 8.72888672 2.71912109 7.11328125 2.87890625 C4.18573914 2.99277552 1.82868856 2.70848415 -1 2 C-0.67 1.34 -0.34 0.68 0 0 Z " fill="#C465D5" transform="translate(236,90)"/>
<path d="M0 0 C0.99 0.33 1.98 0.66 3 1 C2 4 2 4 -0.9375 5.75 C-2.4534375 6.36875 -2.4534375 6.36875 -4 7 C-4.66 6.67 -5.32 6.34 -6 6 C-4.02 4.02 -2.04 2.04 0 0 Z " fill="#D766EE" transform="translate(342,387)"/>
<path d="M0 0 C0.66 0.33 1.32 0.66 2 1 C0.96508351 3.82249951 0.30084735 4.83374226 -2.375 6.3125 C-5 7 -5 7 -9 6 C-6.03 4.02 -3.06 2.04 0 0 Z " fill="#C77FD6" transform="translate(300,313)"/>
<path d="M0 0 C0.66 0 1.32 0 2 0 C1.54857225 1.77260631 1.08859477 3.5430368 0.625 5.3125 C0.24214844 6.79169922 0.24214844 6.79169922 -0.1484375 8.30078125 C-1 11 -1 11 -3 14 C-2.67 10.04 -2.34 6.08 -2 2 C-1.34 2 -0.68 2 0 2 C0 1.34 0 0.68 0 0 Z " fill="#B86EC6" transform="translate(413,298)"/>
<path d="M0 0 C0 0.99 0 1.98 0 3 C-3.15830185 6.06806466 -5.61999924 7.49942848 -10 8 C-8.33333333 6.33333333 -6.66666667 4.66666667 -5 3 C-4.443125 2.401875 -3.88625 1.80375 -3.3125 1.1875 C-2 0 -2 0 0 0 Z " fill="#B26EC2" transform="translate(160,121)"/>
<path d="M0 0 C0.33 0.66 0.66 1.32 1 2 C1.99 1.67 2.98 1.34 4 1 C4.66 1.66 5.32 2.32 6 3 C3.69 4.65 1.38 6.3 -1 8 C-1.33 6.35 -1.66 4.7 -2 3 C-1.34 3 -0.68 3 0 3 C0 2.01 0 1.02 0 0 Z " fill="#C26AD3" transform="translate(369,366)"/>
<path d="M0 0 C3.09592835 3.5087188 4.74194623 6.49197399 6 11 C3 10 3 10 1.3125 7.75 C-0.06511203 4.8635748 -0.26985151 3.14826764 0 0 Z " fill="#23092C" transform="translate(108,326)"/>
<path d="M0 0 C6.875 3.75 6.875 3.75 8 6 C5 7 5 7 2.875 6.375 C1 5 1 5 0.25 2.375 C0.1675 1.59125 0.085 0.8075 0 0 Z " fill="#1B051F" transform="translate(154,383)"/>
<path d="M0 0 C1.33454536 2.1980747 2.02787435 3.52613603 1.875 6.125 C0.73160273 8.575137 -0.53117594 9.04432617 -3 10 C-3.36629408 5.72656908 -2.40814077 3.51187196 0 0 Z " fill="#17071B" transform="translate(403,328)"/>
<path d="M0 0 C3.81684226 1.55500981 6.19195732 4.03595495 9 7 C3.49411765 6.51058824 3.49411765 6.51058824 1.125 4.0625 C0 2 0 2 0 0 Z " fill="#B66AC8" transform="translate(358,125)"/>
<path d="M0 0 C0.33 0.66 0.66 1.32 1 2 C1.99 2.33 2.98 2.66 4 3 C2.68 3.99 1.36 4.98 0 6 C-0.66 5.67 -1.32 5.34 -2 5 C-2 4.67 -2 4.34 -2 4 C-3.32 3.34 -4.64 2.68 -6 2 C-4.02 1.34 -2.04 0.68 0 0 Z " fill="#C56AD4" transform="translate(189,104)"/>
<path d="M0 0 C5.27754845 0.53852535 9.30037439 1.65018719 14 4 C14.33 4.66 14.66 5.32 15 6 C10 4.33333333 5 2.66666667 0 1 C0 0.67 0 0.34 0 0 Z " fill="#320C39" transform="translate(306,96)"/>
<path d="M0 0 C1.12377697 3.30435084 0.89554742 5.0506862 -0.4375 8.25 C-0.72496094 8.95640625 -1.01242188 9.6628125 -1.30859375 10.390625 C-1.53675781 10.92171875 -1.76492187 11.4528125 -2 12 C-2.33 12 -2.66 12 -3 12 C-3.2954439 6.97745369 -2.98514628 4.10457614 0 0 Z " fill="#210827" transform="translate(100,198)"/>
<path d="M0 0 C2 1 2 1 2.8515625 3.28515625 C3.10679687 4.20167969 3.36203125 5.11820313 3.625 6.0625 C3.88539063 6.98160156 4.14578125 7.90070313 4.4140625 8.84765625 C4.60742188 9.55792969 4.80078125 10.26820313 5 11 C0.07692308 6.81538462 0.07692308 6.81538462 -0.3125 2.6875 C-0.209375 1.800625 -0.10625 0.91375 0 0 Z " fill="#AE67BB" transform="translate(409,194)"/>
<path d="M0 0 C2.475 0.99 2.475 0.99 5 2 C3.01388388 3.98611612 1.55856751 4.91454712 -1 6 C-1.99 6 -2.98 6 -4 6 C-2.68 4.02 -1.36 2.04 0 0 Z " fill="#BE6AD0" transform="translate(340,112)"/>
<path d="M0 0 C2.64 0.33 5.28 0.66 8 1 C8.33 2.32 8.66 3.64 9 5 C5.22454612 3.90931332 2.52956528 3.0916909 0 0 Z " fill="#B268C0" transform="translate(173,395)"/>
<path d="M0 0 C0.99 0 1.98 0 3 0 C3.625 2.3125 3.625 2.3125 4 5 C3.01 6.485 3.01 6.485 2 8 C0.23537317 4.91190305 0 3.76687864 0 0 Z " fill="#D865EE" transform="translate(168,304)"/>
<path d="M0 0 C0.66 0.33 1.32 0.66 2 1 C0.35 2.65 -1.3 4.3 -3 6 C-3.99 5.67 -4.98 5.34 -6 5 C-4.02 3.35 -2.04 1.7 0 0 Z M-8 6 C-7.34 6.33 -6.68 6.66 -6 7 C-7.32 7.33 -8.64 7.66 -10 8 C-9.34 7.34 -8.68 6.68 -8 6 Z " fill="#FBE3FD" transform="translate(318,225)"/>
<path d="M0 0 C0.66 0 1.32 0 2 0 C1.54965877 1.62723299 1.08944646 3.25173664 0.625 4.875 C0.36976562 5.77992188 0.11453125 6.68484375 -0.1484375 7.6171875 C-1 10 -1 10 -3 12 C-3.34833144 7.12335991 -2.41685712 4.22949995 0 0 Z " fill="#25092A" transform="translate(105,184)"/>
<path d="M0 0 C0.99 0.33 1.98 0.66 3 1 C0.69 3.97 -1.62 6.94 -4 10 C-5 7 -5 7 -4 4 C-3.01 3.67 -2.02 3.34 -1 3 C-0.67 2.01 -0.34 1.02 0 0 Z " fill="#210728" transform="translate(127,148)"/>
<path d="M0 0 C2.64 0.66 5.28 1.32 8 2 C8.33 3.65 8.66 5.3 9 7 C5.46627288 5.03681826 2.75520215 2.95929119 0 0 Z " fill="#280C2E" transform="translate(357,123)"/>
<path d="M0 0 C1.32 0 2.64 0 4 0 C3.67 0.99 3.34 1.98 3 3 C2.01 3 1.02 3 0 3 C0 3.99 0 4.98 0 6 C-0.99 5.67 -1.98 5.34 -3 5 C-2.67 4.01 -2.34 3.02 -2 2 C-1.34 2 -0.68 2 0 2 C0 1.34 0 0.68 0 0 Z " fill="#D667F0" transform="translate(160,122)"/>
<path d="M0 0 C7.57142857 4.14285714 7.57142857 4.14285714 10 7 C7.23723823 6.47731534 4.6739124 5.89130413 2 5 C2 4.01 2 3.02 2 2 C1.34 2 0.68 2 0 2 C0 1.34 0 0.68 0 0 Z " fill="#B269BF" transform="translate(345,115)"/>
<path d="M0 0 C4.19469571 0.59924224 8.00999834 1.57499941 12 3 C12 3.66 12 4.32 12 5 C9.15449988 4.33989524 6.47674001 3.48275034 3.75 2.4375 C3.04359375 2.16808594 2.3371875 1.89867187 1.609375 1.62109375 C1.07828125 1.41613281 0.5471875 1.21117187 0 1 C0 0.67 0 0.34 0 0 Z " fill="#AE66BF" transform="translate(186,402)"/>
<path d="M0 0 C0 0.66 0 1.32 0 2 C-1.53125 3.2890625 -1.53125 3.2890625 -3.5 4.625 C-4.1496875 5.07101562 -4.799375 5.51703125 -5.46875 5.9765625 C-6.22671875 6.48316406 -6.22671875 6.48316406 -7 7 C-7.99 6.34 -8.98 5.68 -10 5 C-8.71186658 4.16121545 -7.41936744 3.32913217 -6.125 2.5 C-5.40570313 2.0359375 -4.68640625 1.571875 -3.9453125 1.09375 C-2 0 -2 0 0 0 Z " fill="#F9E3FB" transform="translate(248,272)"/>
<path d="M0 0 C0.66 0.33 1.32 0.66 2 1 C2.33 1.99 2.66 2.98 3 4 C1.68 4 0.36 4 -1 4 C-1 4.66 -1 5.32 -1 6 C-1.99 5.67 -2.98 5.34 -4 5 C-2.68 3.35 -1.36 1.7 0 0 Z " fill="#B364C1" transform="translate(148,129)"/>
<path d="M0 0 C-0.33 1.32 -0.66 2.64 -1 4 C-3.64 4.33 -6.28 4.66 -9 5 C-2.87096774 0 -2.87096774 0 0 0 Z " fill="#BA6CCA" transform="translate(183,107)"/>
<path d="M0 0 C0.33 0.66 0.66 1.32 1 2 C0.34 2 -0.32 2 -1 2 C-0.34 3.98 0.32 5.96 1 8 C-0.98 6.35 -2.96 4.7 -5 3 C-2 1 -2 1 0 0 Z " fill="#C26CD4" transform="translate(143,365)"/>
<path d="M0 0 C0.33 0 0.66 0 1 0 C1 2.64 1 5.28 1 8 C-0.98 8.99 -0.98 8.99 -3 10 C-2.01 6.7 -1.02 3.4 0 0 Z " fill="#2B0A30" transform="translate(411,309)"/>
<path d="M0 0 C2.475 0.99 2.475 0.99 5 2 C4.01 2.99 3.02 3.98 2 5 C1.01 4.34 0.02 3.68 -1 3 C-0.67 2.01 -0.34 1.02 0 0 Z " fill="#D665EF" transform="translate(153,375)"/>
<path d="M0 0 C0.33 1.32 0.66 2.64 1 4 C-0.98 5.32 -2.96 6.64 -5 8 C-3.8141763 4.62496331 -2.72426311 2.35277269 0 0 Z " fill="#220927" transform="translate(380,362)"/>
<path d="M0 0 C1.32 1.32 2.64 2.64 4 4 C3.67 4.99 3.34 5.98 3 7 C1.35 5.02 -0.3 3.04 -2 1 C-1.34 0.67 -0.68 0.34 0 0 Z " fill="#B76AC7" transform="translate(134,360)"/>
<path d="M0 0 C0.66 0.66 1.32 1.32 2 2 C-2.75 6.875 -2.75 6.875 -5 8 C-4.67 6.68 -4.34 5.36 -4 4 C-3.01 4 -2.02 4 -1 4 C-0.67 2.68 -0.34 1.36 0 0 Z " fill="#FBE4FD" transform="translate(299,310)"/>
<path d="M0 0 C2.475 0.495 2.475 0.495 5 1 C4.67 1.99 4.34 2.98 4 4 C2.68 4 1.36 4 0 4 C0 2.68 0 1.36 0 0 Z " fill="#DA64EE" transform="translate(256,259)"/>
<path d="M0 0 C5.625 -0.25 5.625 -0.25 9 2 C8.67 2.99 8.34 3.98 8 5 C5.36 3.68 2.72 2.36 0 1 C0 0.67 0 0.34 0 0 Z " fill="#F9E0FD" transform="translate(254,242)"/>
<path d="M0 0 C1.98 0.99 1.98 0.99 4 2 C4 4.97 4 7.94 4 11 C3.67 11 3.34 11 3 11 C2.01 7.37 1.02 3.74 0 0 Z " fill="#200824" transform="translate(411,197)"/>
<path d="M0 0 C1.0625 1.875 1.0625 1.875 2 4 C1.67 4.66 1.34 5.32 1 6 C-0.32 5.67 -1.64 5.34 -3 5 C-2.625 3.0625 -2.625 3.0625 -2 1 C-1.34 0.67 -0.68 0.34 0 0 Z " fill="#BC69CE" transform="translate(116,169)"/>
<path d="M0 0 C0.99 0.33 1.98 0.66 3 1 C1.35830472 3.02054804 -0.30911778 5.02043058 -2 7 C-2.33 7 -2.66 7 -3 7 C-3.1875 4.625 -3.1875 4.625 -3 2 C-2.01 1.34 -1.02 0.68 0 0 Z " fill="#240928" transform="translate(137,137)"/>
<path d="M0 0 C5.75 -0.125 5.75 -0.125 8 1 C8 1.99 8 2.98 8 4 C2.25 2.25 2.25 2.25 0 0 Z " fill="#280A28" transform="translate(326,104)"/>
<path d="M0 0 C1.60875 0.3403125 1.60875 0.3403125 3.25 0.6875 C3.25 1.0175 3.25 1.3475 3.25 1.6875 C-0.38 2.0175 -4.01 2.3475 -7.75 2.6875 C-3.75 -0.3125 -3.75 -0.3125 0 0 Z " fill="#A05DB0" transform="translate(276.75,415.3125)"/>
<path d="M0 0 C1.98 1.65 3.96 3.3 6 5 C4.68 5.33 3.36 5.66 2 6 C0 2.25 0 2.25 0 0 Z " fill="#2A0F30" transform="translate(138,368)"/>
<path d="M0 0 C1.125 3.75 1.125 3.75 0 6 C-1.32 5.67 -2.64 5.34 -4 5 C-2.68 3.35 -1.36 1.7 0 0 Z " fill="#301137" transform="translate(388,352)"/>
<path d="M0 0 C0.66 0 1.32 0 2 0 C1.46930939 3.82097239 0.50298434 6.06171403 -2 9 C-1.125 2.25 -1.125 2.25 0 0 Z " fill="#F5D5F8" transform="translate(174,203)"/>
<path d="M0 0 C1.32 0 2.64 0 4 0 C5 3 5 3 4.0625 5.1875 C3.5365625 6.0846875 3.5365625 6.0846875 3 7 C2.01 4.69 1.02 2.38 0 0 Z " fill="#160318" transform="translate(402,176)"/>
<path d="M0 0 C1.32 0.33 2.64 0.66 4 1 C4.66 3.31 5.32 5.62 6 8 C3.33264727 5.51047079 1.44253657 3.36591866 0 0 Z " fill="#1D0425" transform="translate(388,154)"/>
</svg>
