<?xml version="1.0" encoding="UTF-8"?>
<svg version="1.1" xmlns="http://www.w3.org/2000/svg" width="512" height="512">
<path d="M0 0 C4.10229861 2.28578262 7.59221178 5.05998994 11.125 8.125 C12.28063079 9.11530637 13.43689061 10.10487913 14.59375 11.09375 C15.45419922 11.83044922 15.45419922 11.83044922 16.33203125 12.58203125 C20.49758561 16.12324023 24.75768161 19.55156576 29 23 C34.26958345 27.28346257 39.52221727 31.5805818 44.68798828 35.98876953 C50.2784932 40.75926652 55.96586106 45.36512047 61.76879883 49.87451172 C66.31381597 53.42162719 70.71441876 57.11376228 75.09228516 60.86401367 C79.10687656 64.28613796 83.21736352 67.5663156 87.375 70.8125 C87.9642627 71.27986572 88.55352539 71.74723145 89.16064453 72.22875977 C91.5369682 74.1099878 93.90346784 75.93657342 96.4375 77.6015625 C98.44556944 78.98615877 99.72716662 79.91591019 101 82 C101.55119585 86.06835029 101.41550448 89.92409892 101 94 C102.18078125 93.55527344 103.3615625 93.11054688 104.578125 92.65234375 C106.13520853 92.08016245 107.69251184 91.50857899 109.25 90.9375 C110.02730469 90.64294922 110.80460937 90.34839844 111.60546875 90.04492188 C112.73662109 89.6340332 112.73662109 89.6340332 113.890625 89.21484375 C114.58188477 88.95823975 115.27314453 88.70163574 115.98535156 88.43725586 C118.41284931 87.91039589 119.68204071 88.1279703 122 89 C123.82080078 90.17651367 123.82080078 90.17651367 125.6953125 91.66796875 C126.40292725 92.22516602 127.11054199 92.78236328 127.83959961 93.35644531 C128.59378174 93.96069336 129.34796387 94.56494141 130.125 95.1875 C131.73295012 96.45718677 133.34102692 97.72671313 134.94921875 98.99609375 C136.19131104 99.98198486 136.19131104 99.98198486 137.45849609 100.98779297 C141.59923857 104.26617908 145.76854585 107.50762211 149.9375 110.75 C150.7001416 111.34578857 151.4627832 111.94157715 152.24853516 112.55541992 C152.95929199 113.1094751 153.67004883 113.66353027 154.40234375 114.234375 C155.02616943 114.72131836 155.64999512 115.20826172 156.29272461 115.70996094 C157.82008396 116.86405314 159.40716029 117.93810686 161 119 C161.1875 121.9375 161.1875 121.9375 161 125 C161 125.99 161 126.98 161 128 C161.66 128.66 162.32 129.32 163 130 C163.20569814 132.83249631 163.285074 135.56838787 163.2784729 138.40274048 C163.2842653 139.28241309 163.2900577 140.16208569 163.29602563 141.06841505 C163.31311076 144.0334395 163.31590942 146.99830911 163.31884766 149.96337891 C163.32813997 152.0818775 163.33830758 154.20037241 163.34928894 156.31886292 C163.37668164 162.08508168 163.39176572 167.85127589 163.40471697 173.61754274 C163.42030709 179.63807283 163.44711034 185.65855246 163.4727478 191.67904663 C163.51960876 203.08644418 163.55631738 214.49385115 163.58942068 225.90129602 C163.62759048 238.88540703 163.67701403 251.86946746 163.72740483 264.85353589 C163.83083347 291.56898648 163.92005821 318.28446954 164 345 C165.35332538 345.41883123 165.35332538 345.41883123 166.73399067 345.8461237 C170.14576068 346.90333683 173.55680733 347.96282713 176.96741962 349.02376652 C178.43156249 349.47872957 179.89597196 349.93283571 181.36067295 350.38599873 C194.62829803 354.49195486 207.68133659 359.06414793 220.6875 363.9375 C222.7929775 364.72136106 224.89861136 365.50480227 227.00439453 366.2878418 C231.11992201 367.81949846 235.23351995 369.3562017 239.34619141 370.89550781 C243.64916253 372.50255303 247.96127984 374.0813563 252.28285217 375.63761902 C255.03329025 376.62893631 257.77911691 377.63257827 260.52407837 378.63894653 C262.31769007 379.29164482 264.1171497 379.92820287 265.91674805 380.56420898 C266.96258057 380.95165283 268.00841309 381.33909668 269.0859375 381.73828125 C269.9732959 382.05837158 270.8606543 382.37846191 271.77490234 382.70825195 C274.63534862 384.36884239 275.66782948 385.99930748 277 389 C276.67 389.99 276.34 390.98 276 392 C257.07475498 392.34083619 238.25332061 391.39352951 219.36264038 390.40444946 C210.21786781 389.92608972 201.07180287 389.47326619 191.92578125 389.01953125 C191.0182995 388.97437819 190.11081776 388.92922512 189.17583656 388.88270378 C173.18311716 388.08832706 157.18972882 387.38945399 141.1875 386.8125 C140.20740967 386.77602356 139.22731934 386.73954712 138.2175293 386.70196533 C99.59557055 385.27751963 60.95845301 384.75964851 22.3125 384.75 C21.21576336 384.74941086 20.11902672 384.74882172 18.98905563 384.74821472 C-47.04520883 384.72343569 -112.94319415 387.38343752 -178.8894558 390.59649563 C-182.44488829 390.76949243 -186.00046309 390.93946312 -189.55604553 391.10934639 C-191.94676917 391.22505648 -194.33720149 391.3457622 -196.72766113 391.46678162 C-207.49099539 391.99194365 -218.2248508 392.08268595 -229 392 C-229 391.01 -229 390.02 -229 389 C-227 387.5625 -227 387.5625 -224 386 C-223.43440369 385.70326889 -222.86880737 385.40653778 -222.28607178 385.10081482 C-217.19074233 382.48328959 -212.00272938 380.35308192 -206.640625 378.34765625 C-205.75069351 378.0111203 -204.86076202 377.67458435 -203.94386292 377.32785034 C-201.04771609 376.23452886 -198.14907884 375.14802091 -195.25 374.0625 C-194.25390717 373.68827911 -193.25781433 373.31405823 -192.23153687 372.92849731 C-185.15955806 370.27163653 -178.08183819 367.63046135 -171 365 C-170.11902649 364.67269897 -169.23805298 364.34539795 -168.3303833 364.00817871 C-148.72125417 356.73241882 -129.09125889 349.84418948 -109 344 C-109.00523682 343.07670898 -109.01047363 342.15341797 -109.01586914 341.20214844 C-109.0402041 336.38478469 -109.05235357 331.56741218 -109.0625 326.75 C-109.064776 325.81924652 -109.067052 324.88849304 -109.06939697 323.92953491 C-109.09576747 309.36529346 -108.96146748 294.80646106 -108.74876976 280.24409103 C-108.70705302 277.38040087 -108.66652341 274.51669608 -108.626297 271.65298462 C-108.50359136 262.97220762 -108.37624613 254.29162916 -108.2271719 245.61126041 C-108.16615508 241.94206635 -108.11332782 238.27278525 -108.06249046 234.60343742 C-108.03657421 232.86797242 -108.00701737 231.13255775 -107.97371864 229.3972187 C-107.92818928 227.00613888 -107.89498133 224.61519178 -107.86474609 222.22387695 C-107.84820512 221.51621563 -107.83166414 220.80855431 -107.81462193 220.0794487 C-107.79972798 218.38523739 -107.89047436 216.69073296 -108 215 C-108.66 214.34 -109.32 213.68 -110 213 C-109.83793144 209.80568096 -109.32423905 208.35440083 -107.15234375 205.98046875 C-106.42144531 205.38878906 -105.69054687 204.79710937 -104.9375 204.1875 C-104.20402344 203.58292969 -103.47054687 202.97835937 -102.71484375 202.35546875 C-102.14894531 201.90816406 -101.58304687 201.46085938 -101 201 C-101.33 200.34 -101.66 199.68 -102 199 C-102.37439314 195.46686819 -102.41732998 191.92521827 -102.5 188.375 C-102.55414063 187.40175781 -102.60828125 186.42851562 -102.6640625 185.42578125 C-102.76290761 180.1799302 -102.43037001 176.80380016 -98.96875 172.7265625 C-95.91615258 169.69919948 -92.65430726 166.90423796 -89.37890625 164.12109375 C-86.33650562 161.40841142 -83.4671675 158.54603092 -80.59375 155.65625 C-80.02011719 155.07939453 -79.44648438 154.50253906 -78.85546875 153.90820312 C-77.06842772 152.10732439 -75.28378443 150.30410419 -73.5 148.5 C-52.55294302 127.31432724 -52.55294302 127.31432724 -47 127 C-44.27685547 128.13989258 -44.27685547 128.13989258 -41.3671875 129.89453125 C-40.31402344 130.52037109 -39.26085937 131.14621094 -38.17578125 131.79101562 C-36.54189453 132.79165039 -36.54189453 132.79165039 -34.875 133.8125 C-33.77800781 134.46798828 -32.68101562 135.12347656 -31.55078125 135.79882812 C-27.65334074 138.13490136 -23.78105327 140.47929782 -20 143 C-19.70522041 145.45381665 -19.60850833 147.65599094 -19.63923645 150.11196899 C-19.63667318 150.85280082 -19.6341099 151.59363265 -19.63146895 152.35691392 C-19.62650701 154.85225546 -19.6430631 157.34699888 -19.65942383 159.84228516 C-19.66026958 161.62580857 -19.65979597 163.40933303 -19.65809631 165.19285583 C-19.65723292 170.04597921 -19.67491427 174.89888172 -19.69581819 179.7519536 C-19.71452773 184.81951825 -19.7163309 189.88708754 -19.71989441 194.9546814 C-19.72923174 204.55593255 -19.75386831 214.15708165 -19.78394288 223.75828779 C-19.81743444 234.68676968 -19.83395969 245.61525635 -19.84902918 256.54377675 C-19.88041643 279.02924116 -19.93320965 301.51461487 -20 324 C-19.39671875 323.855625 -18.7934375 323.71125 -18.171875 323.5625 C-17.37265625 323.376875 -16.5734375 323.19125 -15.75 323 C-14.96109375 322.814375 -14.1721875 322.62875 -13.359375 322.4375 C-11 322 -11 322 -7 322 C-7 318.37 -7 314.74 -7 311 C-9.97 311 -12.94 311 -16 311 C-17.14961379 308.70077242 -17.12433248 307.42163134 -17.12304783 304.86517906 C-17.12503888 303.99383147 -17.12702993 303.12248387 -17.12908131 302.2247318 C-17.12616847 301.26171136 -17.12325563 300.29869092 -17.12025452 299.30648804 C-17.12153615 297.77871796 -17.12153615 297.77871796 -17.12284368 296.22008383 C-17.12449925 292.78521414 -17.11897583 289.35039259 -17.11352539 285.91552734 C-17.11324351 283.46206158 -17.11340127 281.00859572 -17.1139679 278.55513 C-17.11419609 273.26166533 -17.11134786 267.96821582 -17.10573006 262.6747551 C-17.09761286 255.02124301 -17.09499961 247.36773688 -17.09374207 239.71422096 C-17.09155189 227.29775851 -17.08489274 214.88130263 -17.07543945 202.46484375 C-17.06626444 190.40136752 -17.05918404 178.33789307 -17.05493164 166.27441406 C-17.05466892 165.53117761 -17.05440619 164.78794116 -17.05413551 164.02218239 C-17.0528305 160.29368993 -17.05156678 156.56519745 -17.05032361 152.83670497 C-17.03995207 121.89113188 -17.0222605 90.94556693 -17 60 C-18.32 59.67 -19.64 59.34 -21 59 C-22.98409467 53.33115809 -23.44440046 50.1346091 -20.984375 44.58984375 C-20.2888855 43.01420654 -20.2888855 43.01420654 -19.5793457 41.40673828 C-16.76716608 35.3407073 -13.8773465 29.31730939 -10.9375 23.3125 C-7.16877228 15.59378905 -3.4234792 7.8799783 0 0 Z " fill="#F8F8F8" transform="translate(230,60)"/>
<path d="M0 0 C4.6702402 0.48982628 6.9535743 2.31146478 10.4375 5.375 C11.49972466 6.29219461 12.5635924 7.20748902 13.62890625 8.12109375 C14.18078613 8.59659668 14.73266602 9.07209961 15.30126953 9.56201172 C18.09916598 11.93045238 20.98416008 14.18417295 23.875 16.4375 C24.45950928 16.89431152 25.04401855 17.35112305 25.64624023 17.82177734 C26.83632343 18.75136184 28.02683555 19.68039746 29.21777344 20.60888672 C32.15105382 22.8984527 35.07509247 25.19975454 38 27.5 C39.16662147 28.41672418 40.33328816 29.33339083 41.5 30.25 C48.5 35.75 48.5 35.75 50.24926758 37.12451172 C51.41826275 38.04294971 52.5873712 38.96124354 53.7565918 39.87939453 C56.6385694 42.14280329 59.51866149 44.40852182 62.39453125 46.6796875 C65.92163408 49.4634711 69.45895424 52.23398241 73 55 C73.69593262 55.5451123 74.39186523 56.09022461 75.10888672 56.65185547 C77.31781851 58.3783036 79.53312999 60.09626106 81.75 61.8125 C82.75897339 62.60309814 82.75897339 62.60309814 83.78833008 63.40966797 C84.4511499 63.92029785 85.11396973 64.43092773 85.796875 64.95703125 C86.42473719 65.45368727 87.05259937 65.95034328 87.69948769 66.46204948 C89.93428258 68.1062905 89.93428258 68.1062905 92.55805016 68.83377266 C95.95773769 70.09499119 97.65772614 71.19623679 100 74 C102.03688526 81.02086815 101.25862184 88.84569519 101.13525391 96.06982422 C101.13243292 98.36624528 101.13401699 100.66267537 101.13967896 102.95909119 C101.14255019 109.19279751 101.08372886 115.42458269 101.01393938 121.65784216 C100.95145803 128.17203392 100.94555463 134.68626894 100.9336853 141.20071411 C100.90612773 152.13448367 100.84365238 163.06754318 100.75439453 174.00097656 C100.66256597 185.26103191 100.59180117 196.52089568 100.54931641 207.78125 C100.54668917 208.47564363 100.54406194 209.17003726 100.54135509 209.88547312 C100.52830446 213.36913671 100.51566744 216.85280165 100.50323606 220.3364675 C100.39961387 249.22477805 100.22277805 278.11237211 100 307 C94.52901623 306.30157654 89.435805 305.20795667 84 304 C84 293.11 84 282.22 84 271 C80.37 270.67 76.74 270.34 73 270 C73 280.23 73 290.46 73 301 C72.01 301 71.02 301 70 301 C70 290.44 70 279.88 70 269 C66.37 268.34 62.74 267.68 59 267 C59 277.56 59 288.12 59 299 C58.01 299 57.02 299 56 299 C56 287.78 56 276.56 56 265 C52.37 264.67 48.74 264.34 45 264 C45 274.89 45 285.78 45 297 C44.34 297 43.68 297 43 297 C42.67 285.78 42.34 274.56 42 263 C39.36 262.34 36.72 261.68 34 261 C34 272.55 34 284.1 34 296 C29.38 295.67 24.76 295.34 20 295 C17.65885633 295.27313343 15.32249342 295.59802999 13 296 C11.26600231 296.03802627 9.53124301 296.04786742 7.796875 296.03515625 C6.89807617 296.03008057 5.99927734 296.02500488 5.07324219 296.01977539 C4.38907227 296.01324951 3.70490234 296.00672363 3 296 C2.99826375 295.38539199 2.9965275 294.77078398 2.99473864 294.13755149 C2.89178477 257.73773475 2.78368836 221.33793669 2.66888306 184.93815533 C2.65511293 180.57083089 2.64138592 176.20350631 2.62768555 171.83618164 C2.62495724 170.96669967 2.62222894 170.09721771 2.61941796 169.2013878 C2.57530301 155.10962745 2.53468314 141.01785907 2.49534739 126.92608466 C2.45492927 112.47432927 2.41077269 98.02258881 2.36312145 83.57085544 C2.33381974 74.64823509 2.30745908 65.72561589 2.28482103 56.80297611 C2.26903345 50.69033618 2.24962551 44.57771453 2.22733159 38.46509489 C2.21456362 34.93468462 2.20342926 31.40428845 2.19658089 27.87386131 C2.18912556 24.05196479 2.17406579 20.23012036 2.15821838 16.4082489 C2.15724028 15.28472147 2.15626217 14.16119404 2.15525442 13.00362033 C2.14977998 11.98397907 2.14430554 10.96433781 2.1386652 9.91379833 C2.13600716 9.03094856 2.13334911 8.1480988 2.13061053 7.23849601 C2.08748016 4.82838784 2.08748016 4.82838784 1 2 C0.43152344 3.01578125 -0.13695312 4.0315625 -0.72265625 5.078125 C-1.09326172 5.73868896 -1.46386719 6.39925293 -1.84570312 7.07983398 C-2.66255725 8.53669922 -3.4776385 9.99455981 -4.29101562 11.45336914 C-6.17349455 14.81604685 -8.06859473 18.1556992 -10.12109375 21.41796875 C-13.89153026 27.4773189 -15.88024796 31.81487772 -16 39 C-16.33 37.68 -16.66 36.36 -17 35 C-17.66 35 -18.32 35 -19 35 C-19.27707503 30.46402684 -18.79962113 27.93169741 -16.3671875 24.1015625 C-15.80773437 23.20953125 -15.24828125 22.3175 -14.671875 21.3984375 C-14.07890625 20.48320313 -13.4859375 19.56796875 -12.875 18.625 C-12.30523437 17.7175 -11.73546875 16.81 -11.1484375 15.875 C-7.67116534 10.39039345 -3.98721081 5.12537496 0 0 Z " fill="#0F1011" transform="translate(232,85)"/>
<path d="M0 0 C6.96014246 0.58659508 13.92048106 1.1000184 20.89097595 1.5461731 C37.80472629 2.64853612 54.15028411 4.26551556 70.70298767 8.13113403 C75.63585507 9.26786396 80.5971189 10.26767157 85.55503845 11.2883606 C87.53168902 11.70069906 89.50825144 12.1134603 91.48472595 12.52664185 C112.06727252 16.91129125 112.06727252 16.91129125 132.8323822 20.2649231 C137.98597297 20.9895623 143.11266106 21.85047579 148.24253845 22.7258606 C149.19338318 22.88385132 150.14422791 23.04184204 151.12388611 23.20462036 C157.72569941 24.34343602 164.12290213 25.91899899 170.55503845 27.7883606 C171.11753845 29.7258606 171.11753845 29.7258606 171.55503845 31.7883606 C169.64812379 33.69527526 166.81688278 32.95177845 164.27671814 32.97198486 C163.33731384 32.97068573 162.39790955 32.9693866 161.43003845 32.9680481 C159.92038513 32.96622025 159.92038513 32.96622025 158.38023376 32.96435547 C143.54460897 32.85421831 128.73005403 31.96826772 113.91767883 31.19281006 C104.77290627 30.71445032 95.62684132 30.26162678 86.4808197 29.80789185 C85.57333796 29.76273878 84.66585621 29.71758572 83.73087502 29.67106438 C67.73815562 28.87668765 51.74476727 28.17781458 35.74253845 27.6008606 C34.76244812 27.56438416 33.78235779 27.52790771 32.77256775 27.49032593 C-5.849391 26.06588023 -44.48650854 25.5480091 -83.13246155 25.5383606 C-84.22919819 25.53777145 -85.32593483 25.53718231 -86.45590591 25.53657532 C-152.49017038 25.51179628 -218.38815569 28.17179812 -284.33441734 31.38485622 C-287.88984984 31.55785303 -291.44542464 31.72782372 -295.00100708 31.89770699 C-297.39173071 32.01341708 -299.78216304 32.1341228 -302.17262268 32.25514221 C-312.93595694 32.78030425 -323.66981235 32.87104654 -334.44496155 32.7883606 C-334.44496155 31.7983606 -334.44496155 30.8083606 -334.44496155 29.7883606 C-330.57678211 27.07018045 -327.07148322 25.76833739 -322.39808655 25.36257935 C-317.23131918 24.82532699 -312.25920391 23.7322714 -307.19496155 22.6008606 C-294.85972497 19.926214 -282.43915221 17.93047013 -269.96742249 16.02005005 C-255.20828559 13.73287294 -240.74355419 10.45530442 -226.28871155 6.7180481 C-218.59971074 4.8583101 -211.05289928 3.49548552 -203.16151428 2.91873169 C-202.28775493 2.8501958 -201.41399557 2.78165991 -200.51375866 2.71104717 C-197.63583785 2.48772579 -194.75730646 2.27413005 -191.8785553 2.0617981 C-189.82837284 1.90722976 -187.7781918 1.75264254 -185.72801208 1.59803772 C-179.11392414 1.10419041 -172.49846981 0.63070423 -165.88246155 0.1633606 C-164.19258936 0.04370249 -164.19258936 0.04370249 -162.46857834 -0.07837296 C-107.95841432 -3.91906475 -54.5325739 -4.59878191 0 0 Z " fill="#0B0C0D" transform="translate(335.44496154785156,419.2116394042969)"/>
<path d="M0 0 C2.475 0.99 2.475 0.99 5 2 C5.78409367 2.23641299 6.56818733 2.47282598 7.37604141 2.71640301 C14.7309942 5.02939112 20.79562245 8.37273775 25 15 C29.18917404 27.67239098 27.24454795 42.98831278 26.82594967 56.0981524 C26.67209551 61.58387944 26.63298418 67.07043746 26.58135986 72.5579071 C26.46648419 82.93327111 26.24942035 93.30384073 25.99499822 103.67661875 C25.71021765 115.49188753 25.54030336 127.30795094 25.37971449 139.12545836 C25.04701669 163.41998266 24.5711056 187.70999276 24 212 C22.52031676 211.85950482 21.04125484 211.71245174 19.5625 211.5625 C18.32693359 211.44068359 18.32693359 211.44068359 17.06640625 211.31640625 C15 211 15 211 14 210 C13.88981935 207.40796809 13.84503667 204.84200733 13.84178162 202.24900818 C13.83684364 201.42735973 13.83190566 200.60571128 13.82681805 199.75916439 C13.81136492 196.98454599 13.80306141 194.20995086 13.79467773 191.43530273 C13.78510534 189.45488274 13.77509565 187.47446481 13.76467896 185.49404907 C13.73755457 180.09966542 13.71658593 174.70527295 13.69667697 169.31085849 C13.67486371 163.68004659 13.6474523 158.04926211 13.62062073 152.41847229 C13.57063061 141.74768961 13.52571531 131.07689177 13.48259836 120.40607935 C13.43327987 108.26116636 13.37834182 96.11628085 13.32291877 83.97139442 C13.20900177 58.98095524 13.102184 33.99048971 13 9 C11.68 9 10.36 9 9 9 C9 75 9 141 9 209 C6.03 208.34 3.06 207.68 0 207 C0 138.69 0 70.38 0 0 Z " fill="#090A0B" transform="translate(361,191)"/>
<path d="M0 0 C3.67596288 0.00258282 7.35192362 0.00016913 11.02788663 -0.00138617 C17.21302613 -0.00319484 23.39815362 -0.00084012 29.58329129 0.00395441 C35.85217947 0.00875929 42.12104379 0.00879594 48.38993192 0.00395441 C134.15903816 -0.06011439 134.15903816 -0.06011439 174.81867719 3.34087992 C177.61355433 3.57324127 180.40897226 3.79873388 183.20439363 4.02443838 C191.6695278 4.70820587 200.13258537 5.41486252 208.5947659 6.1343255 C209.48915372 6.21015863 210.38354154 6.28599176 211.30503201 6.36412287 C218.2949653 6.95944678 225.27931014 7.60096301 232.25980496 8.29912043 C232.93763437 8.366873 233.61546378 8.43462557 234.31383348 8.50443125 C241.41188721 9.21461348 248.50928838 9.93125461 255.60648465 10.6499505 C256.26880094 10.7169849 256.93111722 10.7840193 257.61350369 10.85308504 C271.60833198 12.26967232 285.60179702 13.69948723 299.5947659 15.1343255 C295.95877299 17.55832078 294.32216903 17.36706296 289.99906278 17.30961847 C289.33783162 17.30189354 288.67660047 17.29416861 287.995332 17.28620958 C280.03118939 17.16296598 272.07894336 16.74830271 264.1260159 16.329638 C262.45922279 16.24492793 260.79240796 16.16064439 259.1255734 16.07675409 C255.60393428 15.89912023 252.08239479 15.71967391 248.56092191 15.53877497 C239.30851462 15.06442592 230.05521772 14.60795116 220.80179715 14.15385675 C219.42264347 14.08612716 219.42264347 14.08612716 218.0156281 14.01702929 C201.94107032 13.22975176 185.86575869 12.52816024 169.7822659 11.9468255 C168.80290067 11.91034906 167.82353543 11.87387262 166.81449246 11.83629084 C128.19179664 10.4119392 89.55395282 9.89397419 50.9072659 9.8843255 C49.81052926 9.88373636 48.71379262 9.88314722 47.58382154 9.88254023 C-18.45044293 9.85776119 -84.34842824 12.51776302 -150.29468989 15.73082113 C-153.85012239 15.90381794 -157.40569719 16.07378863 -160.96127963 16.24367189 C-163.35200326 16.35938199 -165.74243559 16.48008771 -168.13289523 16.60110712 C-178.89622949 17.12626916 -189.6300849 17.21701145 -200.4052341 17.1343255 C-200.4052341 16.4743255 -200.4052341 15.8143255 -200.4052341 15.1343255 C-198.56300265 14.96827814 -198.56300265 14.96827814 -196.68355441 14.79887629 C-192.0239609 14.3786265 -187.3644847 13.95708734 -182.70503879 13.53520441 C-180.70767358 13.35452696 -178.71027881 13.17417603 -176.71285129 12.99418879 C-164.14523104 11.86145766 -151.5850355 10.6746635 -139.03096652 9.40056086 C-88.67481767 4.29471424 -88.67481767 4.29471424 -64.4052341 2.3843255 C-63.29646914 2.2961204 -63.29646914 2.2961204 -62.1653049 2.20613337 C-61.44993564 2.14964624 -60.73456637 2.09315912 -59.99751925 2.03496027 C-59.38349246 1.98646433 -58.76946567 1.93796839 -58.136832 1.88800287 C-54.56067037 1.62160034 -50.98301026 1.37781663 -47.4052341 1.1343255 C-46.11830157 1.04504786 -44.83136905 0.95577021 -43.50543857 0.86378717 C-29.01247289 -0.0571089 -14.51589979 -0.01345664 0 0 Z " fill="#FBFBFB" transform="translate(201.40523409843445,434.865674495697)"/>
<path d="M0 0 C3.79657953 1.51863181 6.50508926 2.83013488 9.8125 5.0625 C10.99779297 5.85333984 10.99779297 5.85333984 12.20703125 6.66015625 C12.79871094 7.10230469 13.39039063 7.54445312 14 8 C14 8.33 14 8.66 14 9 C12.35 9 10.7 9 9 9 C9 75 9 141 9 209 C6.03 208.34 3.06 207.68 0 207 C0 138.69 0 70.38 0 0 Z " fill="#030405" transform="translate(361,191)"/>
<path d="M0 0 C1.57515381 0.15275391 1.57515381 0.15275391 3.18212891 0.30859375 C30.48487259 3.27058575 57.42957069 8.5004174 84.38671875 13.65625 C85.16278473 13.8045224 85.93885071 13.9527948 86.73843384 14.1055603 C93.67674882 15.43860697 100.54967503 16.81837095 107.32421875 18.84375 C108.48824219 19.18792969 109.65226563 19.53210938 110.8515625 19.88671875 C112.10646484 20.26763672 112.10646484 20.26763672 113.38671875 20.65625 C113.38671875 20.98625 113.38671875 21.31625 113.38671875 21.65625 C105.81283676 21.11830995 98.25386006 20.47261555 90.6953125 19.75390625 C89.81896149 19.67079193 88.94261047 19.58767761 88.03970337 19.50204468 C84.41175884 19.15723143 80.78392039 18.81140903 77.15649414 18.46118164 C70.5693251 17.82660176 63.97956967 17.22872715 57.38671875 16.65625 C56.34841919 16.56437408 55.31011963 16.47249817 54.24035645 16.37783813 C34.87239559 14.70130927 15.58685827 14.22055089 -3.84041977 14.21898651 C-5.45242234 14.21882751 -7.06442517 14.21751171 -8.67642593 14.21509552 C-44.81657452 14.16216276 -80.58276555 16.42219471 -116.41723633 21.31103516 C-119.51162346 21.64526962 -122.50380354 21.71932974 -125.61328125 21.65625 C-123.17349537 19.21646412 -121.60365607 18.96600032 -118.26953125 18.140625 C-117.14450195 17.86210693 -116.01947266 17.58358887 -114.86035156 17.29663086 C-113.62381836 17.00280518 -112.38728516 16.70897949 -111.11328125 16.40625 C-110.47015991 16.2531839 -109.82703857 16.1001178 -109.16442871 15.94241333 C-79.38124299 8.89874735 -49.27273293 5.01565609 -18.89562988 1.53118896 C-15.34931166 1.12076353 -11.84602803 0.69855972 -8.33227539 0.05981445 C-5.42235428 -0.37208818 -2.92452372 -0.28450735 0 0 Z " fill="#0B0C0D" transform="translate(260.61328125,399.34375)"/>
<path d="M0 0 C1.08042285 3.24126855 1.11104333 5.54134925 1.08901978 8.9500885 C1.08342545 10.19346985 1.07783112 11.4368512 1.07206726 12.71791077 C1.06067894 14.09848107 1.04918553 15.4790505 1.03759766 16.85961914 C1.02909087 18.31179567 1.02101945 19.76397481 1.01335144 21.21615601 C0.99113488 25.16491223 0.96245967 29.11359758 0.93239641 33.06230092 C0.90172711 37.19893862 0.87610279 41.33560807 0.84970093 45.47227478 C0.80448233 52.42710196 0.75501649 59.38188954 0.703125 66.33666992 C0.64331897 74.36002777 0.59047559 82.38340862 0.54135668 90.40683848 C0.49385273 98.13556529 0.44105791 105.86424774 0.38599777 113.59292412 C0.36272284 116.87534143 0.34132921 120.15776288 0.32149124 123.44020271 C0.29784384 127.31683727 0.2695501 131.19341183 0.23780251 135.06998825 C0.22693282 136.4864419 0.21761645 137.90290853 0.21003914 139.31938362 C0.16824306 146.93776391 -0.0436091 154.43675085 -1 162 C-1.66 162 -2.32 162 -3 162 C-3 111.51 -3 61.02 -3 9 C-5.64 11.31 -8.28 13.62 -11 16 C-12.32 16.99 -13.64 17.98 -15 19 C-15.60848863 21.74920133 -15.60848863 21.74920133 -15.51898193 24.94145203 C-15.53985115 26.80295898 -15.53985115 26.80295898 -15.56114197 28.70207214 C-15.55642873 30.07962167 -15.55133474 31.45716993 -15.54589844 32.8347168 C-15.55463123 34.28342806 -15.56511599 35.73212967 -15.57722473 37.18081665 C-15.6051419 41.11654029 -15.60848817 45.05195011 -15.60750484 48.9877584 C-15.61062907 53.09980575 -15.63623699 57.21171074 -15.65948486 61.32368469 C-15.70008613 69.11155408 -15.72039522 76.89933965 -15.73345876 84.6872986 C-15.74931488 93.55305471 -15.78772458 102.4186679 -15.82805204 111.28434122 C-15.91050741 129.52284899 -15.96456424 147.76134333 -16 166 C-16.66 166 -17.32 166 -18 166 C-18 118.48 -18 70.96 -18 22 C-19.98 23.32 -21.96 24.64 -24 26 C-24.93556575 26.62295834 -25.8711315 27.24591667 -26.83504772 27.88775253 C-29.21272288 29.82960875 -29.21272288 29.82960875 -29.63085651 32.6786232 C-29.63500458 34.22170465 -29.63500458 34.22170465 -29.63923645 35.79595947 C-29.65452393 36.9794397 -29.6698114 38.16291992 -29.68556213 39.38226318 C-29.67693649 40.67698547 -29.66831085 41.97170776 -29.65942383 43.30566406 C-29.66787762 44.68556161 -29.678522 46.06544723 -29.69119263 47.4453125 C-29.71935933 51.18892405 -29.71686404 54.93196305 -29.70889878 58.67564869 C-29.70577567 62.58884462 -29.73080227 66.50185757 -29.75285339 70.41497803 C-29.79032145 77.8238979 -29.802443 85.23263421 -29.8054778 92.64163947 C-29.81016565 101.0769686 -29.84308013 109.51211352 -29.87837565 117.94736147 C-29.95034381 135.29822742 -29.98683227 152.64899187 -30 170 C-30.66 170 -31.32 170 -32 170 C-32 124.79 -32 79.58 -32 33 C-37.09326386 36.24027169 -37.09326386 36.24027169 -37.63085651 39.58491898 C-37.63500458 41.06163134 -37.63500458 41.06163134 -37.63923645 42.56817627 C-37.65452393 43.70117157 -37.6698114 44.83416687 -37.68556213 46.00149536 C-37.67693649 47.24011322 -37.66831085 48.47873108 -37.65942383 49.75488281 C-37.67514938 51.71622665 -37.67514938 51.71622665 -37.69119263 53.7171936 C-37.71935341 57.2996608 -37.71686515 60.88152957 -37.70889878 64.46407413 C-37.70577515 68.20911059 -37.73080377 71.95395597 -37.75285339 75.69891357 C-37.79031784 82.78909122 -37.80244278 89.87907705 -37.8054778 96.9693439 C-37.81016605 105.04192694 -37.84308178 113.11431752 -37.87837565 121.18681574 C-37.95033912 137.79119898 -37.98683151 154.39546385 -38 171 C-38.66 171 -39.32 171 -40 171 C-40.33 127.77 -40.66 84.54 -41 40 C-49.32397577 45.83844495 -49.32397577 45.83844495 -50 52.16966248 C-50.0406637 54.19920815 -50.03785248 56.22992143 -50 58.25952148 C-50.01092178 59.37245071 -50.02184357 60.48537994 -50.03309631 61.6320343 C-50.05972313 65.29599128 -50.03017367 68.95720134 -50 72.62109375 C-50.00751996 75.16700987 -50.01855512 77.71291784 -50.03295898 80.25880432 C-50.05847778 86.26550696 -50.04865437 92.27113762 -50.02153492 98.27774912 C-49.99262992 105.11949001 -50.00913488 111.96088952 -50.02934647 118.80263412 C-50.06988787 132.86861949 -50.05375391 146.93408137 -50 161 C-50.33 161 -50.66 161 -51 161 C-51 124.04 -51 87.08 -51 49 C-51.99 49 -52.98 49 -54 49 C-54.33 47.02 -54.66 45.04 -55 43 C-54.071875 42.525625 -53.14375 42.05125 -52.1875 41.5625 C-44.69716111 37.27367693 -38.2961224 31.21624803 -31.9375 25.4375 C-24.51283953 18.69206714 -16.63482002 12.68498759 -8.49609375 6.83203125 C-5.54978606 4.66956129 -2.76333489 2.38991126 0 0 Z " fill="#2B2C2D" transform="translate(176,230)"/>
<path d="M0 0 C0.89267578 0.08203674 1.78535156 0.16407349 2.70507812 0.24859619 C20.1739091 1.86684432 37.59911013 3.76847378 55 6 C55 6.33 55 6.66 55 7 C41.37639252 6.64080511 27.82464258 5.87748613 14.24560547 4.7612915 C-38.55202555 0.44757777 -91.46625752 -0.41372278 -144.36231995 2.57826233 C-150.34682554 2.91640584 -156.3321719 3.20708555 -162.3203125 3.47265625 C-179.98506928 4.26783607 -197.58495826 5.30235091 -215.18554688 7.03491211 C-224.49021103 7.92845146 -233.663834 8.15363704 -243 8 C-243 7.67 -243 7.34 -243 7 C-215.47609989 3.49794067 -188.0168869 0.87596821 -160.31494141 -0.69140625 C-156.19458119 -0.9260968 -152.07722207 -1.19128127 -147.95979309 -1.47225952 C-98.89564152 -4.78738252 -48.95886245 -4.52113091 0 0 Z " fill="#E7E7E7" transform="translate(341,427)"/>
<path d="M0 0 C2.4693098 0.00259366 4.93860621 0.00193717 7.40791702 0.00118637 C35.95036406 0.01122046 64.16300782 1.3914461 92.56193924 4.37755966 C94.13562823 4.53925945 95.70935717 4.70057102 97.28313065 4.86144638 C103.37594363 5.48806575 109.46345867 6.14390712 115.54631424 6.86193466 C119.58761318 7.32028806 123.49752978 7.49109065 127.56193924 7.37755966 C127.23193924 8.36755966 126.90193924 9.35755966 126.56193924 10.37755966 C111.27246497 9.7680658 96.05669198 8.68069082 80.81193924 7.37755966 C57.5807738 5.40513581 34.57485655 4.04784721 11.24943924 3.94005966 C10.23315823 3.93444016 10.23315823 3.93444016 9.19634628 3.92870712 C-26.4782182 3.75063349 -61.96517412 6.52834932 -97.49819565 9.46287155 C-98.63294468 9.55525305 -98.63294468 9.55525305 -99.79061794 9.64950085 C-101.80882298 9.81412556 -103.82677672 9.98182318 -105.84470749 10.14977646 C-109.38678291 10.37430915 -112.88995535 10.41783157 -116.43806076 10.37755966 C-116.76806076 9.71755966 -117.09806076 9.05755966 -117.43806076 8.37755966 C-114.09322077 7.40472554 -110.89865596 7.14215359 -107.42634201 6.93615341 C-101.59851113 6.54984029 -95.79285823 6.05349341 -89.98102951 5.47521591 C-89.14234329 5.39202103 -88.30365707 5.30882614 -87.43955612 5.2231102 C-83.98348721 4.8786904 -80.52774636 4.53106318 -77.07209396 4.1824913 C-71.79121366 3.65131445 -66.50905056 3.13716363 -61.22468185 2.64184189 C-59.36467952 2.46543988 -57.50513038 2.2841932 -55.64606857 2.09814072 C-37.10083732 0.25779249 -18.61730823 -0.02054575 0 0 Z " fill="#E5E5E5" transform="translate(248.43806076049805,412.62244033813477)"/>
<path d="M0 0 C0.33 0 0.66 0 1 0 C1.17239182 20.27078754 1.33870238 40.54162138 1.5 60.8125 C1.50594854 61.55918583 1.51189708 62.30587167 1.51802588 63.07518435 C1.81938733 100.94582555 2.10413492 138.81533989 2.0625 176.6875 C2.06164398 177.47219791 2.06078796 178.25689583 2.05990601 179.06537247 C2.04931611 188.04360819 2.03073363 197.02180843 2 206 C1.67 206 1.34 206 1 206 C-0.26772408 184.99200094 -0.0708542 164.04369636 0 143 C-0.33 155.54 -0.66 168.08 -1 181 C-1.66 180.67 -2.32 180.34 -3 180 C-3 122.25 -3 64.5 -3 5 C-2.34 5 -1.68 5 -1 5 C-0.67 3.35 -0.34 1.7 0 0 Z " fill="#A8A8A9" transform="translate(216,115)"/>
<path d="M0 0 C3.55338051 1.27525503 6.20715936 2.73969301 9.125 5.125 C12.46452035 7.79661628 15.84409926 10.37254637 19.3125 12.875 C20.22257812 13.54660156 21.13265625 14.21820313 22.0703125 14.91015625 C24.12595096 16.37651168 26.23070204 17.77525662 28.3671875 19.12109375 C36.64633234 24.58532934 36.64633234 24.58532934 37.75390625 29.015625 C37.75036003 31.78167323 37.54664071 34.2921039 37 37 C33.22863021 36.4306974 30.63027428 35.39952755 27.42578125 33.34765625 C26.59369141 32.81849609 25.76160156 32.28933594 24.90429688 31.74414062 C24.04900391 31.18919922 23.19371094 30.63425781 22.3125 30.0625 C21.44560547 29.51142578 20.57871094 28.96035156 19.68554688 28.39257812 C13.30791734 24.30791734 13.30791734 24.30791734 11 22 C8.55036823 21.97746557 8.55036823 21.97746557 5.875 22.375 C4.96492188 22.48585937 4.05484375 22.59671875 3.1171875 22.7109375 C2.06917969 22.85402344 2.06917969 22.85402344 1 23 C0.15808218 20.0751367 -0.11819313 17.49258344 -0.09765625 14.453125 C-0.09443359 13.60878906 -0.09121094 12.76445312 -0.08789062 11.89453125 C-0.07951172 11.02183594 -0.07113281 10.14914063 -0.0625 9.25 C-0.05798828 8.36183594 -0.05347656 7.47367188 -0.04882812 6.55859375 C-0.037074 4.37232671 -0.02064249 2.18619821 0 0 Z " fill="#090A0B" transform="translate(353,166)"/>
<path d="M0 0 C0.33 0 0.66 0 1 0 C1.13274131 8.54740937 1.26324429 17.09484914 1.39115143 25.64233208 C1.45065596 29.61443591 1.51083508 33.58652676 1.57275391 37.55859375 C1.64438566 42.1614276 1.71389773 46.76428903 1.78125 51.3671875 C1.79232285 52.12269583 1.80339569 52.87820415 1.81480408 53.65660667 C1.97265944 64.64919974 2.0478257 75.63871631 1.98156738 86.63265991 C1.95287477 93.08364657 2.15175989 99.49617355 2.5 105.9375 C3.00574761 116.02355242 3.11338367 126.0909291 3.125 136.1875 C3.12749756 136.93498505 3.12999512 137.68247009 3.13256836 138.4526062 C3.15705208 147.34619483 2.93323176 156.1449273 2 165 C1.34 164.34 0.68 163.68 0 163 C-0.66 163.99 -1.32 164.98 -2 166 C-2 141.58 -2 117.16 -2 92 C-1.67 92 -1.34 92 -1 92 C-0.67 61.64 -0.34 31.28 0 0 Z " fill="#EBEBEB" transform="translate(215,203)"/>
<path d="M0 0 C0.66 0 1.32 0 2 0 C2.33 3.63 2.66 7.26 3 11 C3.33 11 3.66 11 4 11 C4.02340282 28.16833697 4.04101537 45.33666894 4.05181217 62.50501823 C4.05695947 70.47730926 4.06397222 78.44959035 4.07543945 86.421875 C4.08543425 93.37382741 4.09186481 100.32577262 4.09408849 107.27773201 C4.09538748 110.95571098 4.09842161 114.63366935 4.10573006 118.31164169 C4.11383936 122.4263575 4.11398806 126.54103794 4.11352539 130.65576172 C4.11712067 131.86345718 4.12071594 133.07115265 4.12442017 134.31544495 C4.11638082 140.94048845 3.82184521 147.42410699 3 154 C2.34 154 1.68 154 1 154 C0.67 103.18 0.34 52.36 0 0 Z " fill="#343536" transform="translate(172,238)"/>
<path d="M0 0 C-0.79980017 7.77736713 -8.03905565 12.50815875 -13.6875 17.26171875 C-15.49921465 18.72847029 -17.31574169 20.18929498 -19.13671875 21.64453125 C-22.25266944 24.20785767 -25.22693024 26.88573761 -28.1875 29.625 C-28.68999268 30.08801514 -29.19248535 30.55103027 -29.71020508 31.02807617 C-31.96032819 33.10434463 -34.20121221 35.18956649 -36.4296875 37.2890625 C-37.48542969 38.25972656 -37.48542969 38.25972656 -38.5625 39.25 C-39.16191406 39.81203125 -39.76132813 40.3740625 -40.37890625 40.953125 C-40.91386719 41.29859375 -41.44882813 41.6440625 -42 42 C-42.99 41.67 -43.98 41.34 -45 41 C-41.73551304 35.51941222 -37.60784553 31.49709029 -32.9375 27.1875 C-32.17743652 26.47899902 -31.41737305 25.77049805 -30.63427734 25.04052734 C-25.75714369 20.52749784 -20.78410353 16.2302933 -15.57421875 12.10546875 C-11.62173348 8.87270766 -7.92940938 5.37248488 -4.21484375 1.87109375 C-2 0 -2 0 0 0 Z " fill="#121314" transform="translate(174,219)"/>
<path d="M0 0 C6.92487522 -0.1079973 13.72834679 0.19581733 20.625 0.8046875 C21.61137451 0.88872833 22.59774902 0.97276917 23.61401367 1.05935669 C25.69157977 1.23726335 27.76897168 1.41721493 29.84619141 1.59912109 C32.96346362 1.87180399 36.08126119 2.13762546 39.19921875 2.40234375 C49.21865328 3.26226222 59.22443843 4.16711351 69.20629883 5.39694214 C73.49551942 5.90803661 77.68193874 6.0779104 82 6 C81.67 6.99 81.34 7.98 81 9 C65.71052573 8.39050614 50.49475274 7.30313116 35.25 6 C31.04709676 5.6431558 26.84399403 5.28881549 22.640625 4.9375 C21.64140015 4.85395264 20.64217529 4.77040527 19.6126709 4.68432617 C11.08211669 3.98293366 2.54757753 3.44266841 -6 3 C-6 2.67 -6 2.34 -6 2 C-4.02 1.67 -2.04 1.34 0 1 C0 0.67 0 0.34 0 0 Z " fill="#DCDCDC" transform="translate(294,414)"/>
<path d="M0 0 C0.99 0 1.98 0 3 0 C3.1772402 14.81181735 3.34291371 29.62372617 3.49477577 44.4358263 C3.56555659 51.31316715 3.64013791 58.19042774 3.72363281 65.06762695 C3.80415128 71.70054267 3.87412294 78.33351486 3.93757248 84.96661949 C3.9635595 87.50127707 3.99312173 90.03590051 4.02626419 92.57047462 C4.07196945 96.11182028 4.10513013 99.65307251 4.13525391 103.19458008 C4.16006584 104.77737762 4.16006584 104.77737762 4.18537903 106.39215088 C4.19104385 107.35548843 4.19670868 108.31882599 4.20254517 109.31135559 C4.2117631 110.14926541 4.22098103 110.98717524 4.23047829 111.85047626 C4 114 4 114 2 117 C1.67 92.58 1.34 68.16 1 43 C0.67 43 0.34 43 0 43 C0 28.81 0 14.62 0 0 Z " fill="#D1D1D1" transform="translate(122,279)"/>
<path d="M0 0 C0.92167969 0.00902344 1.84335938 0.01804687 2.79296875 0.02734375 C3.79263672 0.04474609 3.79263672 0.04474609 4.8125 0.0625 C4.8125 0.3925 4.8125 0.7225 4.8125 1.0625 C7.4525 1.3925 10.0925 1.7225 12.8125 2.0625 C12.8125 2.3925 12.8125 2.7225 12.8125 3.0625 C11.63042969 3.09988281 10.44835937 3.13726562 9.23046875 3.17578125 C0.17434092 3.507103 -8.85199243 3.99588751 -17.87890625 4.796875 C-18.63422134 4.86380051 -19.38953644 4.93072601 -20.16773987 4.99967957 C-23.92923697 5.33625227 -27.68930266 5.68468565 -31.44848633 6.04614258 C-41.05706458 6.9440028 -50.53883205 7.23076236 -60.1875 7.0625 C-60.1875 6.7325 -60.1875 6.4025 -60.1875 6.0625 C-54.26526689 5.36691642 -48.34281642 4.67322267 -42.42016602 3.98120117 C-40.40969005 3.74603045 -38.39927209 3.51036334 -36.38891602 3.27416992 C-33.48208869 2.93274223 -30.57505031 2.59316165 -27.66796875 2.25390625 C-26.78417038 2.14969864 -25.90037201 2.04549103 -24.98979187 1.93812561 C-7.48914973 -0.09726168 -7.48914973 -0.09726168 0 0 Z " fill="#BFBFC0" transform="translate(158.1875,427.9375)"/>
<path d="M0 0 C10.35591664 6.0675635 19.65285586 13.50699517 29 21 C29.60328125 21.48202881 30.2065625 21.96405762 30.828125 22.46069336 C33.65507231 24.75928286 35.71314882 26.52550181 37 30 C32.99488305 28.60001318 30.03860198 26.71297975 26.6875 24.125 C25.64851563 23.3309375 24.60953125 22.536875 23.5390625 21.71875 C22.97606445 21.285625 22.41306641 20.8525 21.83300781 20.40625 C18.42513217 17.79179026 14.99368981 15.20873439 11.5625 12.625 C10.55159302 11.85760498 10.55159302 11.85760498 9.52026367 11.07470703 C6.11280359 8.50559368 2.72114268 6.10793053 -1 4 C-0.67 2.68 -0.34 1.36 0 0 Z " fill="#1C1D1E" transform="translate(354,159)"/>
<path d="M0 0 C1.45184885 0.94538995 2.90099201 1.89530505 4.33325195 2.87011719 C5.82420341 3.88082809 7.33848489 4.8569233 8.85546875 5.828125 C11 8 11 8 11.48828125 11.234375 C11.43027344 12.39453125 11.37226563 13.5546875 11.3125 14.75 C11.26738281 15.92046875 11.22226562 17.0909375 11.17578125 18.296875 C11.11777344 19.18890625 11.05976563 20.0809375 11 21 C6.98609328 19.62380341 3.94032894 18.09940433 1 15 C0.46574086 12.22539454 0.21108048 10.02201654 0.1875 7.25 C0.16236328 6.55261719 0.13722656 5.85523438 0.11132812 5.13671875 C0.05271038 3.42508051 0.02342947 1.7124814 0 0 Z " fill="#F7F7F7" transform="translate(277,141)"/>
<path d="M0 0 C1.68272986 0.62501395 3.34630643 1.30177383 5 2 C5.92167969 2.38800781 6.84335937 2.77601563 7.79296875 3.17578125 C10 5 10 5 10.48828125 8.35546875 C10.43027344 9.62003906 10.37226563 10.88460937 10.3125 12.1875 C10.26738281 13.45980469 10.22226562 14.73210937 10.17578125 16.04296875 C10.11777344 17.01878906 10.05976563 17.99460938 10 19 C8.31727014 18.37498605 6.65369357 17.69822617 5 17 C4.07832031 16.61199219 3.15664063 16.22398437 2.20703125 15.82421875 C0 14 0 14 -0.48828125 10.64453125 C-0.43027344 9.37996094 -0.37226563 8.11539063 -0.3125 6.8125 C-0.24482422 4.90404297 -0.24482422 4.90404297 -0.17578125 2.95703125 C-0.11777344 1.98121094 -0.05976563 1.00539062 0 0 Z " fill="#ECECEC" transform="translate(266,187)"/>
<path d="M0 0 C4.00172041 1.37201843 7.04933163 2.92921592 10 6 C10.48828125 9.234375 10.48828125 9.234375 10.3125 12.75 C10.26738281 13.92046875 10.22226562 15.0909375 10.17578125 16.296875 C10.11777344 17.18890625 10.05976563 18.0809375 10 19 C9.11054688 18.54560547 9.11054688 18.54560547 8.203125 18.08203125 C6.42120469 17.20686826 4.59079114 16.43089642 2.75 15.6875 C0 13 0 13 -0.3828125 9.84765625 C-0.3756421 6.54568897 -0.25684438 3.2914132 0 0 Z " fill="#F0F0F0" transform="translate(266,160)"/>
<path d="M0 0 C4.39277468 0.95452754 8.23338924 2.29785901 11 6 C11.30978612 9.79755054 10.77467724 13.28285123 10 17 C6.1173586 15.85285595 2.89271758 14.89271758 0 12 C-0.390625 9.08203125 -0.390625 9.08203125 -0.25 5.8125 C-0.21390625 4.72582031 -0.1778125 3.63914063 -0.140625 2.51953125 C-0.09421875 1.68808594 -0.0478125 0.85664063 0 0 Z " fill="#F3F3F3" transform="translate(278,195)"/>
<path d="M0 0 C3.933631 0.6500208 6.74961294 1.58646208 9.83984375 4.2578125 C12.16656178 7.75180658 11.42083149 11.98651454 11 16 C6.41369917 15.4604352 3.32554531 14.24820704 0 11 C-0.51935762 7.28418362 -0.34700956 3.72713968 0 0 Z " fill="#F4F4F4" transform="translate(290,203)"/>
<path d="M0 0 C1.31322788 0.97819024 2.62556152 1.9575811 3.9375 2.9375 C4.66839844 3.48277344 5.39929688 4.02804688 6.15234375 4.58984375 C8 6 8 6 9 7 C9.07258946 9.18639453 9.08373783 11.37500389 9.0625 13.5625 C9.05347656 14.76003906 9.04445313 15.95757812 9.03515625 17.19140625 C9.02355469 18.11824219 9.01195312 19.04507813 9 20 C2.40272918 17.6176522 2.40272918 17.6176522 0 15 C-0.29642569 12.28770497 -0.38061189 10.00260268 -0.25 7.3125 C-0.23195313 6.61060547 -0.21390625 5.90871094 -0.1953125 5.18554688 C-0.14826213 3.45644564 -0.07651873 1.72804795 0 0 Z " fill="#FAFAFA" transform="translate(266,132)"/>
<path d="M0 0 C2.01797888 0.61008664 4.01548229 1.28856912 6 2 C6.94875 2.33 7.8975 2.66 8.875 3 C11 5 11 5 11.30859375 7.41796875 C11.31218522 9.96432371 11.21416931 12.46328347 11 15 C3.07894737 14.07894737 3.07894737 14.07894737 0 11 C-0.43175366 7.30003506 -0.28329014 3.70795315 0 0 Z " fill="#E8E8E8" transform="translate(265,261)"/>
<path d="M0 0 C3.79515318 1.54516951 7.02501908 3.15028144 10 6 C10.89091724 10.11918207 10.60434442 13.8501683 10 18 C2.5625 15.075 2.5625 15.075 0 12 C-0.43007011 7.96809272 -0.28578123 4.03904135 0 0 Z " fill="#F7F7F7" transform="translate(290,152)"/>
<path d="M0 0 C4.17909054 0.9720928 6.84880238 1.92042051 10 5 C10.5277129 9.04400396 10.34432226 12.94464891 10 17 C2.67241379 14.13054187 2.67241379 14.13054187 0 11 C-0.42735664 7.29802314 -0.28780105 3.7094357 0 0 Z " fill="#F5F5F5" transform="translate(278,169)"/>
<path d="M0 0 C3.74330246 1.58421908 7.00645738 3.22178237 10 6 C10.88536511 9.79665393 10.6130421 13.17189265 10 17 C8.51965236 16.52449439 7.04074979 16.04448784 5.5625 15.5625 C4.73878906 15.29566406 3.91507812 15.02882812 3.06640625 14.75390625 C1 14 1 14 0 13 C-0.07258946 10.81360547 -0.08373783 8.62499611 -0.0625 6.4375 C-0.05347656 5.23996094 -0.04445313 4.04242188 -0.03515625 2.80859375 C-0.02355469 1.88175781 -0.01195312 0.95492187 0 0 Z " fill="#F5F5F5" transform="translate(266,225)"/>
<path d="M0 0 C0.350625 0.495 0.70125 0.99 1.0625 1.5 C-0.52136973 3.08386973 -2.19990405 2.72016489 -4.3984375 2.81640625 C-5.8059729 2.8793689 -5.8059729 2.8793689 -7.24194336 2.94360352 C-8.7618689 3.00245728 -8.7618689 3.00245728 -10.3125 3.0625 C-11.85272827 3.12618774 -11.85272827 3.12618774 -13.42407227 3.19116211 C-22.93122595 3.5555529 -32.42514238 3.5998964 -41.9375 3.5 C-41.9375 2.84 -41.9375 2.18 -41.9375 1.5 C-37.36634403 1.06862177 -32.79481492 0.64152493 -28.22290039 0.21826172 C-26.67005821 0.07390892 -25.11732122 -0.07158035 -23.56469727 -0.21826172 C-21.32335168 -0.42980445 -19.08165024 -0.63715579 -16.83984375 -0.84375 C-16.15413803 -0.90937134 -15.46843231 -0.97499268 -14.76194763 -1.04260254 C-2.75744369 -2.13479511 -2.75744369 -2.13479511 0 0 Z " fill="#E1E1E1" transform="translate(42.9375,448.5)"/>
<path d="M0 0 C3.63 1.65 7.26 3.3 11 5 C11 8.3 11 11.6 11 15 C3.07894737 14.07894737 3.07894737 14.07894737 0 11 C-0.43922807 7.23598224 -0.22421115 3.81158956 0 0 Z " fill="#F1F1F1" transform="translate(278,232)"/>
<path d="M0 0 C3.59728873 1.33613581 6.98840642 2.59605539 10 5 C10.48828125 7.91796875 10.48828125 7.91796875 10.3125 11.1875 C10.26738281 12.27417969 10.22226562 13.36085937 10.17578125 14.48046875 C10.11777344 15.31191406 10.05976563 16.14335937 10 17 C2.67241379 14.13054187 2.67241379 14.13054187 0 11 C-0.42735664 7.29802314 -0.28780105 3.7094357 0 0 Z " fill="#F3F3F3" transform="translate(290,177)"/>
<path d="M0 0 C7.4375 2.925 7.4375 2.925 10 6 C10.43007011 10.03190728 10.28578123 13.96095865 10 18 C8.51990357 17.02223933 7.04094856 16.0427506 5.5625 15.0625 C4.73878906 14.51722656 3.91507812 13.97195312 3.06640625 13.41015625 C1 12 1 12 0 11 C-0.07226502 9.14712498 -0.0838122 7.29166122 -0.0625 5.4375 C-0.05347656 4.42558594 -0.04445313 3.41367188 -0.03515625 2.37109375 C-0.02355469 1.58863281 -0.01195312 0.80617187 0 0 Z " fill="#F1F1F1" transform="translate(302,161)"/>
<path d="M0 0 C3.94627764 0.56375395 6.79480075 1.59610056 10 4 C11.58547518 7.41486963 11.07119026 11.29810637 11 15 C8.98202112 14.38991336 6.98451771 13.71143088 5 13 C4.05125 12.67 3.1025 12.34 2.125 12 C0 10 0 10 -0.30859375 7.58203125 C-0.31218522 5.03567629 -0.21416931 2.53671653 0 0 Z " fill="#E8E8E8" transform="translate(302,211)"/>
<path d="M0 0 C4.30764815 1.56641751 8.06171464 3.68336156 12 6 C12 8.64 12 11.28 12 14 C7.43545749 13.45660208 4.0271824 12.20536179 0 10 C0 6.7 0 3.4 0 0 Z " fill="#EBEBEC" transform="translate(277,246)"/>
<path d="M0 0 C3.7910119 1.44950455 7.3874638 3.15172566 11 5 C11 8.3 11 11.6 11 15 C8.98202112 14.38991336 6.98451771 13.71143088 5 13 C4.05125 12.67 3.1025 12.34 2.125 12 C0 10 0 10 -0.30859375 7.58203125 C-0.31218522 5.03567629 -0.21416931 2.53671653 0 0 Z " fill="#F0F0F0" transform="translate(278,211)"/>
<path d="M0 0 C3.42804189 1.23790401 6.44207202 2.35406991 9 5 C9.390625 7.91796875 9.390625 7.91796875 9.25 11.1875 C9.21390625 12.27417969 9.1778125 13.36085937 9.140625 14.48046875 C9.07101562 15.72763672 9.07101562 15.72763672 9 17 C2.37 13.69916667 2.37 13.69916667 0 11 C-0.4326446 7.29848506 -0.28780172 3.70944434 0 0 Z " fill="#F0F0F0" transform="translate(303,185)"/>
<path d="M0 0 C3.97615668 0.56802238 7.03816635 1.20741399 10 4 C10.4348094 7.36977285 10.28526214 10.62122848 10 14 C8.51965236 13.52449439 7.04074979 13.04448784 5.5625 12.5625 C4.73878906 12.29566406 3.91507812 12.02882812 3.06640625 11.75390625 C1 11 1 11 0 10 C-0.07205511 8.31391034 -0.08386068 6.62499341 -0.0625 4.9375 C-0.05347656 4.01839844 -0.04445313 3.09929687 -0.03515625 2.15234375 C-0.02355469 1.44207031 -0.01195312 0.73179687 0 0 Z " fill="#F6F6F6" transform="translate(291,239)"/>
<path d="M0 0 C5.445 1.485 5.445 1.485 11 3 C11 6.3 11 9.6 11 13 C3.375 11.25 3.375 11.25 0 9 C-0.41137202 5.96133201 -0.13193156 3.07840297 0 0 Z " fill="#ECECEC" transform="translate(278,300)"/>
<path d="M0 0 C1.64696604 0.4752588 3.29254728 0.95531891 4.9375 1.4375 C6.31228516 1.83775391 6.31228516 1.83775391 7.71484375 2.24609375 C10 3 10 3 11 4 C11.07179964 5.51928038 11.08392007 7.04167482 11.0625 8.5625 C11.05347656 9.38878906 11.04445313 10.21507812 11.03515625 11.06640625 C11.02355469 11.70449219 11.01195312 12.34257812 11 13 C6.68369734 12.49810434 3.22342624 12.03381293 0 9 C-0.42678621 5.95847293 -0.2877853 3.05052416 0 0 Z " fill="#EDEDED" transform="translate(290,272)"/>
<path d="M0 0 C8.11320755 2.45283019 8.11320755 2.45283019 11 5 C11.43712796 7.794299 11.23390169 10.14639938 11 13 C7.652896 12.67816308 4.68412718 12.28066756 1.5625 11 C-1.0010043 7.7187145 -0.30263525 4.00991708 0 0 Z " fill="#F1F1F1" transform="translate(278,267)"/>
<path d="M0 0 C4.95 1.98 4.95 1.98 10 4 C10.09765625 10.15234375 10.09765625 10.15234375 10 12 C9.67 12.33 9.34 12.66 9 13 C2.60465116 12.30232558 2.60465116 12.30232558 0 11 C0 7.37 0 3.74 0 0 Z " fill="#F5F5F5" transform="translate(266,295)"/>
<path d="M0 0 C3.95371299 0.56481614 6.71675094 1.71996593 10 4 C11.4783226 6.95664519 11.06032783 9.74229737 11 13 C6.46024301 12.46591094 3.39669399 11.08072246 0 8 C-0.5280182 5.15305653 -0.29260052 2.92600524 0 0 Z " fill="#F0F0F0" transform="translate(290,253)"/>
<path d="M0 0 C1.68272986 0.62501395 3.34630643 1.30177383 5 2 C6.3921875 2.495 6.3921875 2.495 7.8125 3 C10 5 10 5 10.3125 7.41796875 C10.3125 9.96374142 10.21412386 12.46382182 10 15 C5.97685873 13.62063728 2.86501442 12.19244464 0 9 C-0.42065016 5.95554445 -0.29351416 3.05254729 0 0 Z " fill="#ECECEC" transform="translate(266,205)"/>
<path d="M0 0 C8.11320755 2.45283019 8.11320755 2.45283019 11 5 C11.43712796 7.794299 11.23390169 10.14639938 11 13 C6.87248551 12.39301257 3.6678852 10.96189209 0 9 C0 6.03 0 3.06 0 0 Z " fill="#F4F4F4" transform="translate(290,219)"/>
<path d="M0 0 C0.99 0.33 1.98 0.66 3 1 C2.17052306 2.45643223 1.34080033 3.9127249 0.51000977 5.3684082 C-0.21143687 6.63410117 -0.93096889 7.90088718 -1.64868164 9.16870117 C-3.39757445 12.24726067 -5.17656113 15.28229641 -7.0546875 18.28515625 C-10.84797552 24.38432267 -12.87953146 28.77188767 -13 36 C-13.33 34.68 -13.66 33.36 -14 32 C-14.66 32 -15.32 32 -16 32 C-16.29365566 27.3890615 -15.75640995 24.87217766 -13.26171875 20.99609375 C-12.68873047 20.09052734 -12.11574219 19.18496094 -11.52539062 18.25195312 C-10.91888672 17.32318359 -10.31238281 16.39441406 -9.6875 15.4375 C-8.79514648 14.03854492 -8.79514648 14.03854492 -7.88476562 12.61132812 C-6.77409808 10.87024817 -5.65778788 9.13274504 -4.53393555 7.40014648 C-2.97465716 4.9603461 -1.47848835 2.48943002 0 0 Z " fill="#171819" transform="translate(229,88)"/>
<path d="M0 0 C4.31326684 0.50154266 7.733521 1.02173974 11 4 C11.43637094 6.79498349 11.23397007 9.14556518 11 12 C6.68673316 11.49845734 3.266479 10.97826026 0 8 C-0.43637094 5.20501651 -0.23397007 2.85443482 0 0 Z " fill="#E8E8E8" transform="translate(290,286)"/>
<path d="M0 0 C3.55780196 0.60990891 6.6828589 1.5783681 10 3 C10 6.3 10 9.6 10 13 C3.84392015 11.49001815 3.84392015 11.49001815 1.0625 9.875 C-0.7269549 6.71713841 -0.17573948 3.57336933 0 0 Z " fill="#EFEFEF" transform="translate(302,277)"/>
<path d="M0 0 C1.6256807 0.30893932 3.25052748 0.6222695 4.875 0.9375 C5.77992188 1.11152344 6.68484375 1.28554688 7.6171875 1.46484375 C10 2 10 2 12 3 C12 5.31 12 7.62 12 10 C3.42857143 9 3.42857143 9 0 8 C0 5.36 0 2.72 0 0 Z " fill="#ECECED" transform="translate(290,334)"/>
<path d="M0 0 C4.95 0.99 4.95 0.99 10 2 C10 5.3 10 8.6 10 12 C6.7 11.34 3.4 10.68 0 10 C0 6.7 0 3.4 0 0 Z " fill="#E8E8E8" transform="translate(266,310)"/>
<path d="M0 0 C3.46941546 0.45822468 6.67395049 0.89131683 10 2 C10 4.97 10 7.94 10 11 C2.25 10.125 2.25 10.125 0 9 C0 6.03 0 3.06 0 0 Z " fill="#F5F5F5" transform="translate(303,309)"/>
<path d="M0 0 C15.74628051 1.16491941 31.36456762 2.79850994 47 5 C47 5.33 47 5.66 47 6 C30.94192988 5.50028017 14.99028677 4.56419294 -1 3 C-0.67 2.01 -0.34 1.02 0 0 Z " fill="#C7C7C7" transform="translate(349,428)"/>
<path d="M0 0 C3.46941546 0.45822468 6.67395049 0.89131683 10 2 C10 4.97 10 7.94 10 11 C3.375 10.25 3.375 10.25 0 8 C-0.40843923 5.28796348 -0.13336867 2.7562858 0 0 Z " fill="#FAFBFB" transform="translate(291,305)"/>
<path d="M0 0 C1.45880109 0.14107747 2.91703551 0.28802415 4.375 0.4375 C5.59316406 0.55931641 5.59316406 0.55931641 6.8359375 0.68359375 C9 1 9 1 11 2 C11 4.64 11 7.28 11 10 C3.375 9.125 3.375 9.125 0 8 C0 5.36 0 2.72 0 0 Z " fill="#F4F4F4" transform="translate(277,331)"/>
<path d="M0 0 C2.97 0.99 5.94 1.98 9 3 C9 6.3 9 9.6 9 13 C5.47930015 12.41321669 3.28700157 11.64350079 0 10 C0 6.7 0 3.4 0 0 Z " fill="#F9F9F9" transform="translate(303,245)"/>
<path d="M0 0 C3.55780196 0.60990891 6.6828589 1.5783681 10 3 C10 5.64 10 8.28 10 11 C8.52031676 10.85950482 7.04125484 10.71245174 5.5625 10.5625 C4.73878906 10.48128906 3.91507812 10.40007812 3.06640625 10.31640625 C1 10 1 10 0 9 C-0.07179964 7.48071962 -0.08392007 5.95832518 -0.0625 4.4375 C-0.05347656 3.61121094 -0.04445313 2.78492188 -0.03515625 1.93359375 C-0.02355469 1.29550781 -0.01195312 0.65742188 0 0 Z " fill="#F7F7F7" transform="translate(278,314)"/>
<path d="M0 0 C3.55780196 0.60990891 6.6828589 1.5783681 10 3 C10 5.97 10 8.94 10 12 C8.51965236 11.52449439 7.04074979 11.04448784 5.5625 10.5625 C4.73878906 10.29566406 3.91507812 10.02882813 3.06640625 9.75390625 C1 9 1 9 0 8 C-0.14115161 5.32941149 -0.04247107 2.67567762 0 0 Z " fill="#F4F4F4" transform="translate(278,281)"/>
<path d="M0 0 C4.95 0.99 4.95 0.99 10 2 C10 4.64 10 7.28 10 10 C6.7 9.67 3.4 9.34 0 9 C0 6.03 0 3.06 0 0 Z " fill="#F0F0F0" transform="translate(266,328)"/>
<path d="M0 0 C3.3 0.99 6.6 1.98 10 3 C10 5.64 10 8.28 10 11 C2.25 10.125 2.25 10.125 0 9 C0 6.03 0 3.06 0 0 Z " fill="#F7F7F7" transform="translate(291,318)"/>
<path d="M0 0 C3.95073883 0.56439126 6.97614005 1.32172405 10 4 C10.44184367 6.79466123 10.23400073 9.14519114 10 12 C6.20696275 10.99806563 3.28463659 10.18975773 0 8 C-0.40843923 5.28796348 -0.13336867 2.7562858 0 0 Z " fill="#E9E9EA" transform="translate(302,290)"/>
<path d="M0 0 C3.95073883 0.56439126 6.97614005 1.32172405 10 4 C10.44184367 6.79466123 10.23400073 9.14519114 10 12 C8.51965236 11.52449439 7.04074979 11.04448784 5.5625 10.5625 C4.73878906 10.29566406 3.91507812 10.02882813 3.06640625 9.75390625 C1 9 1 9 0 8 C-0.14115161 5.32941149 -0.04247107 2.67567762 0 0 Z " fill="#EBEBEB" transform="translate(302,259)"/>
<path d="M0 0 C4.455 1.98 4.455 1.98 9 4 C9 6.97 9 9.94 9 13 C5.47930015 12.41321669 3.28700157 11.64350079 0 10 C0 6.7 0 3.4 0 0 Z " fill="#F3F3F3" transform="translate(266,241)"/>
<path d="M0 0 C3.98648303 -0.295119 5.84655312 0.17826057 8.9609375 2.66796875 C9.68023437 3.23193359 10.39953125 3.79589844 11.140625 4.37695312 C11.87796875 4.97443359 12.6153125 5.57191406 13.375 6.1875 C14.84035671 7.3486528 16.30649392 8.50882137 17.7734375 9.66796875 C18.83062988 10.50980713 18.83062988 10.50980713 19.90917969 11.36865234 C22.87190441 13.6802972 25.9225005 15.84412634 29 18 C28.67 18.99 28.34 19.98 28 21 C27.06800781 20.31035156 26.13601563 19.62070313 25.17578125 18.91015625 C17.64739703 13.35644646 10.06617106 7.92080401 2.31640625 2.6796875 C1.55199219 2.12539062 0.78757812 1.57109375 0 1 C0 0.67 0 0.34 0 0 Z " fill="#E4E5E5" transform="translate(353,165)"/>
<path d="M0 0 C1.48039971 0.64300189 2.95928782 1.28948499 4.4375 1.9375 C5.26121094 2.29714844 6.08492188 2.65679687 6.93359375 3.02734375 C9 4 9 4 10 5 C10.04092937 7.33297433 10.04241723 9.66705225 10 12 C6.44219804 11.39009109 3.3171411 10.4216319 0 9 C0 6.03 0 3.06 0 0 Z " fill="#F5F5F5" transform="translate(266,276)"/>
<path d="M0 0 C3.34373475 0.55728913 6.03312999 1.35173889 9 3 C9 5.64 9 8.28 9 11 C5.26512223 10.5020163 3.18762365 10.12508244 0 8 C-0.40843923 5.28796348 -0.13336867 2.7562858 0 0 Z " fill="#F7F7F7" transform="translate(303,322)"/>
<path d="M0 0 C3.96 1.98 3.96 1.98 8 4 C8 6.97 8 9.94 8 13 C4.30453259 12.50061251 2.30038396 11.99584888 0 9 C-0.39500857 5.95053384 -0.13430156 3.08893588 0 0 Z " fill="#F5F5F5" transform="translate(303,225)"/>
<path d="M0 0 C0 0.33 0 0.66 0 1 C2.64 1.33 5.28 1.66 8 2 C8 2.33 8 2.66 8 3 C-8.335 3.495 -8.335 3.495 -25 4 C-21.74169441 0.74169441 -21.30419533 0.5940244 -17 0.3125 C-16.03449219 0.24804688 -15.06898438 0.18359375 -14.07421875 0.1171875 C-9.38019701 -0.06174598 -4.69631776 -0.08175408 0 0 Z " fill="#D1D1D2" transform="translate(163,428)"/>
<path d="M0 0 C6.15234375 -0.09765625 6.15234375 -0.09765625 8 0 C9 1 9 1 9.09765625 2.84765625 C9.04882812 5.92382812 9.04882812 5.92382812 9 9 C2.25 8.125 2.25 8.125 0 7 C0 4.69 0 2.38 0 0 Z " fill="#E6E6E6" transform="translate(303,338)"/>
<path d="M0 0 C0.495 1.485 0.495 1.485 1 3 C-3.02045543 3.33799692 -7.04141688 3.66956119 -11.0625 4 C-12.19623047 4.09539062 -13.32996094 4.19078125 -14.49804688 4.2890625 C-20.01683235 4.7395756 -25.46247589 5.12859272 -31 5 C-31.33 4.34 -31.66 3.68 -32 3 C-28.43323931 1.94056613 -24.95496573 1.72650446 -21.25 1.5 C-17.31350605 1.2427395 -13.40848195 0.975295 -9.5 0.4375 C-6.28711838 0.0358898 -3.23292026 -0.08082301 0 0 Z " fill="#DFDFDF" transform="translate(163,418)"/>
<path d="M0 0 C0.33 0 0.66 0 1 0 C1.05073147 7.17160012 1.08574687 14.3431539 1.10986328 21.51489258 C1.1199176 23.9543633 1.13356292 26.39382197 1.15087891 28.83325195 C1.17515182 32.34068779 1.18648891 35.84796421 1.1953125 39.35546875 C1.20563507 40.44522507 1.21595764 41.53498138 1.22659302 42.65776062 C1.22674408 43.67844131 1.22689514 44.69912201 1.22705078 45.75073242 C1.231492 46.64563889 1.23593323 47.54054535 1.24050903 48.46257019 C0.97350263 51.27955376 0.16460699 53.43415482 -1 56 C-1.33 56 -1.66 56 -2 56 C-2.125 49.375 -2.125 49.375 -1 46 C-0.88599048 44.48165793 -0.82387323 42.95910409 -0.79467773 41.43676758 C-0.7647599 40.05567558 -0.7647599 40.05567558 -0.73423767 38.64668274 C-0.71752518 37.65597275 -0.70081268 36.66526276 -0.68359375 35.64453125 C-0.66281265 34.62775803 -0.64203156 33.6109848 -0.62062073 32.56340027 C-0.55519952 29.31316937 -0.49627463 26.06285723 -0.4375 22.8125 C-0.39430773 20.61001762 -0.35069321 18.40754347 -0.30664062 16.20507812 C-0.19952573 10.80347147 -0.09774543 5.40178388 0 0 Z " fill="#D8D9D9" transform="translate(126,347)"/>
<path d="M0 0 C11.385 0.99 11.385 0.99 23 2 C19.33947465 4.44035023 17.60615929 4.23804615 13.25 4.1875 C12.59765381 4.18105469 11.94530762 4.17460937 11.27319336 4.16796875 C4.1653928 4.05923223 -2.91540915 3.56274764 -10 3 C-10 2.67 -10 2.34 -10 2 C-6.7 1.67 -3.4 1.34 0 1 C0 0.67 0 0.34 0 0 Z " fill="#D9D9D9" transform="translate(478,448)"/>
<path d="M0 0 C0 0.99 0 1.98 0 3 C-5.61 3 -11.22 3 -17 3 C-17 2.34 -17 1.68 -17 1 C-11.27959989 0.1679418 -5.77759884 -0.12036664 0 0 Z " fill="#AAAAAA" transform="translate(18,449)"/>
<path d="M0 0 C0.66 0 1.32 0 2 0 C2 5.94 2 11.88 2 18 C-3 16 -3 16 -4 14 C-3.01 14.33 -2.02 14.66 -1 15 C-0.67 10.05 -0.34 5.1 0 0 Z " fill="#9D9D9D" transform="translate(315,170)"/>
<path d="M0 0 C0.99 0.33 1.98 0.66 3 1 C0.36 5.62 -2.28 10.24 -5 15 C-5.99 15 -6.98 15 -8 15 C-6.62712658 11.30123909 -4.93644547 8.0485524 -2.875 4.6875 C-2.33617187 3.80449219 -1.79734375 2.92148438 -1.2421875 2.01171875 C-0.83226562 1.34785156 -0.42234375 0.68398437 0 0 Z " fill="#1C1D1E" transform="translate(229,88)"/>
<path d="M0 0 C6.27 0 12.54 0 19 0 C18.67 0.99 18.34 1.98 18 3 C15.93722893 2.85805236 13.87478969 2.71127784 11.8125 2.5625 C10.66394531 2.48128906 9.51539063 2.40007812 8.33203125 2.31640625 C5.48401829 2.04596188 2.78789518 1.62478253 0 1 C0 0.67 0 0.34 0 0 Z " fill="#E2E2E2" transform="translate(357,420)"/>
<path d="M0 0 C1.9375 1.5 1.9375 1.5 3 3 C-1.61073111 4.29676812 -5.33840089 3.71109139 -10 3 C-7.29940087 -0.81261054 -4.39059989 -0.47042142 0 0 Z " fill="#ECECEC" transform="translate(41,447)"/>
<path d="M0 0 C1.55654297 -0.00386719 1.55654297 -0.00386719 3.14453125 -0.0078125 C5.94092942 0.11423825 8.46689879 0.49136645 11.1875 1.125 C11.1875 1.455 11.1875 1.785 11.1875 2.125 C5.2475 2.455 -0.6925 2.785 -6.8125 3.125 C-7.1425 2.465 -7.4725 1.805 -7.8125 1.125 C-5.12423174 -0.21913413 -3.00014598 -0.00739863 0 0 Z " fill="#B7B8B8" transform="translate(138.8125,419.875)"/>
<path d="M0 0 C4.29 0.33 8.58 0.66 13 1 C9.36804504 3.42130331 7.61650652 3.21022785 3.3125 3.125 C2.13300781 3.10695313 0.95351563 3.08890625 -0.26171875 3.0703125 C-1.16535156 3.04710937 -2.06898438 3.02390625 -3 3 C-2.01 2.67 -1.02 2.34 0 2 C0 1.34 0 0.68 0 0 Z " fill="#A9A9A9" transform="translate(488,449)"/>
<path d="M0 0 C0.33 0.99 0.66 1.98 1 3 C-4.61 2.67 -10.22 2.34 -16 2 C-16 1.67 -16 1.34 -16 1 C-10.61509359 0.08342019 -5.45769811 -0.11138159 0 0 Z " fill="#BBBBBB" transform="translate(361,419)"/>
<path d="M0 0 C0.33 0 0.66 0 1 0 C1.05428973 2.22889496 1.09292338 4.45817471 1.125 6.6875 C1.14820312 7.92886719 1.17140625 9.17023438 1.1953125 10.44921875 C1.01032021 13.81237857 0.45767895 15.9985587 -1 19 C-1.33 19 -1.66 19 -2 19 C-2.29530838 12.50321562 -1.17293889 6.3778552 0 0 Z " fill="#C6C6C6" transform="translate(126,384)"/>
<path d="M0 0 C0.33 0.66 0.66 1.32 1 2 C-3.455 2.495 -3.455 2.495 -8 3 C-8 2.34 -8 1.68 -8 1 C-3.375 -1.125 -3.375 -1.125 0 0 Z " fill="#C7C7C7" transform="translate(17,443)"/>
<path d="M0 0 C2.97 0 5.94 0 9 0 C9 0.99 9 1.98 9 3 C6.1875 3.1875 6.1875 3.1875 3 3 C2.01 2.01 1.02 1.02 0 0 Z " fill="#AFB6B6" transform="translate(9,449)"/>
<path d="M0 0 C2.31 0.33 4.62 0.66 7 1 C7 1.66 7 2.32 7 3 C4.36 3 1.72 3 -1 3 C-0.67 2.01 -0.34 1.02 0 0 Z " fill="#CFD0D0" transform="translate(349,428)"/>
<path d="M0 0 C0.33 0 0.66 0 1 0 C1 3.3 1 6.6 1 10 C0.67 8.68 0.34 7.36 0 6 C-0.66 6 -1.32 6 -2 6 C-1.125 1.125 -1.125 1.125 0 0 Z " fill="#0C0E0F" transform="translate(215,114)"/>
</svg>
